<?xml version="1.0" encoding="UTF-8"?>
<svg version="1.1" xmlns="http://www.w3.org/2000/svg" width="1880" height="546" fill="none">
<path d="M0 0 C620.4 0 1240.8 0 1880 0 C1880 180.18 1880 360.36 1880 546 C1259.6 546 639.2 546 0 546 C0 365.82 0 185.64 0 0 Z " fill="none" transform="translate(0,0)"/>
<path d="M0 0 C20.46 0 40.92 0 62 0 C62.01458252 4.77879639 62.02916504 9.55759277 62.04418945 14.48120117 C62.09458338 30.29108899 62.1610384 46.1008794 62.23571491 61.91067028 C62.28058959 71.49373967 62.32002328 81.07677258 62.34643555 90.65991211 C62.36948327 99.01720317 62.40295641 107.37437799 62.44870156 115.73157674 C62.47254279 120.15245561 62.49133097 124.57322002 62.49761391 128.99416161 C62.50370623 133.1646979 62.52385374 137.33494166 62.55427551 141.50536919 C62.56298983 143.02697968 62.56679221 144.54862851 62.56500816 146.07026291 C62.55126487 163.21768534 65.51438918 181.2690923 78 194 C89.09312483 204.0019978 102.36430758 206.91812069 116.84375 206.28125 C118.22959194 206.19401175 119.61508352 206.1008699 121 206 C122.0209375 205.9278125 123.041875 205.855625 124.09375 205.78125 C135.13834436 204.35194955 146.79981554 198.24649924 153.94140625 189.66796875 C163.70140207 174.73399924 165.136676 159.10342304 165.20532227 141.6796875 C165.21491387 140.13172654 165.22492468 138.58376814 165.23532104 137.03581238 C165.26223733 132.85255162 165.28331833 128.66927974 165.30332303 124.48598099 C165.32526498 120.10708871 165.35261332 115.72823021 165.37937927 111.34936523 C165.42919557 103.06585544 165.47417522 94.78232677 165.51740164 86.49878025 C165.56686885 77.06465276 165.62175166 67.63055918 165.67708123 58.19646454 C165.79073135 38.79767317 165.89689222 19.39885046 166 0 C186.46 0 206.92 0 228 0 C228.02187378 6.95501587 228.02187378 6.95501587 228.04418945 14.05053711 C228.09464885 29.41336294 228.16111637 44.77608921 228.23571491 60.13881588 C228.28053275 69.44824523 228.31997908 78.75763753 228.34643555 88.06713867 C228.3695298 96.18861498 228.4030535 104.30997262 228.44870156 112.43135458 C228.47248094 116.72492883 228.49130916 121.01838666 228.49761391 125.31202507 C228.50373486 129.3676675 228.5239814 133.42301267 228.55427551 137.47854424 C228.56294508 138.95332257 228.56680188 140.42813993 228.56500816 141.90294266 C228.55849662 149.73935069 229.0106117 157.31536282 230.32389832 165.04298401 C230.43784543 165.72780033 230.55179255 166.41261665 230.66919261 167.11818498 C232.85101238 178.81218963 239.04712496 189.70767293 248.53515625 196.9296875 C254.42333018 200.92138909 260.08891701 203.39850127 267 205 C267.62245605 205.17200928 268.24491211 205.34401855 268.88623047 205.52124023 C283.00758174 208.71966595 299.10048161 205.37329412 311.3125 198 C312.199375 197.34 313.08625 196.68 314 196 C314.80566406 195.40832031 315.61132812 194.81664062 316.44140625 194.20703125 C319.13328225 191.88503134 320.75822345 189.70076717 322.625 186.6875 C323.19476562 185.78386719 323.76453125 184.88023437 324.3515625 183.94921875 C334.64273704 165.53728325 332.47607069 143.09689473 332.50611091 122.6739707 C332.51559514 118.34982344 332.5418052 114.02577541 332.56611633 109.70169067 C332.60951203 101.5424713 332.63822332 93.38327148 332.66143972 85.22397244 C332.6886372 75.92258569 332.73253869 66.62130012 332.77772844 57.3199861 C332.87018829 38.2133646 332.93984062 19.10675239 333 0 C353.46 0 373.92 0 395 0 C395.02262068 20.61961965 395.04102204 41.23922917 395.05181217 61.85885811 C395.05695658 71.43406749 395.06396375 81.00926859 395.07543945 90.58447266 C395.08544316 98.93547791 395.09186691 107.28647716 395.09408849 115.63748825 C395.09538598 120.05447692 395.09841042 124.47144841 395.10573006 128.88843155 C395.11258023 133.05638119 395.11459889 137.22430677 395.11310768 141.39226151 C395.11338 142.91186148 395.11533125 144.43146237 395.11920547 145.95105743 C395.15233735 159.63188001 394.71785074 172.91796174 391.4375 186.25 C391.17356445 187.32483643 390.90962891 188.39967285 390.63769531 189.50708008 C383.81957301 215.96572984 369.25654465 236.91592337 345.6015625 251.02734375 C336.76823396 256.08538346 327.85576151 259.51377515 318 262 C316.16888672 262.47953125 316.16888672 262.47953125 314.30078125 262.96875 C285.68260903 269.21902826 253.7152109 265.98636943 228.4375 250.8125 C216.64231152 242.87975944 206.99524173 233.77655847 199 222 C199 221.34 199 220.68 199 220 C198.01 220 197.02 220 196 220 C195.77441406 220.69480469 195.54882812 221.38960937 195.31640625 222.10546875 C193.70324316 225.65251281 191.46483123 228.39234387 188.9375 231.3125 C188.44362793 231.88572998 187.94975586 232.45895996 187.44091797 233.04956055 C169.55059791 253.49687608 144.39902437 263.35426918 117.60864258 265.23852539 C86.69195598 266.43928076 57.03198843 260.88048983 33.625 239.5 C31.71801414 237.69514638 29.85863954 235.85593015 28 234 C27.26007812 233.27167969 26.52015625 232.54335938 25.7578125 231.79296875 C3.95191544 208.92647358 -0.18874965 175.99317002 -0.11352539 145.88012695 C-0.11324277 144.28246564 -0.11340271 142.68480419 -0.1139679 141.08714294 C-0.11425296 136.78213493 -0.1084035 132.4771552 -0.10139394 128.17215371 C-0.09511173 123.66117261 -0.09455277 119.15019074 -0.09336853 114.63920593 C-0.0902695 106.11140114 -0.08207548 97.58360927 -0.07201904 89.05581015 C-0.0608134 79.34111047 -0.05533627 69.62641015 -0.05032361 59.91170561 C-0.03989158 39.94112827 -0.02156398 19.97056864 0 0 Z " fill="#FEFEFE" transform="translate(629,105)"/>
<path d="M0 0 C1.58440867 1.28969743 3.15065642 2.5976746 4.70922852 3.91845703 C5.22614258 4.35561035 5.74305664 4.79276367 6.27563477 5.24316406 C26.86485061 22.8846131 40.40240932 45.43084171 47.52172852 71.48095703 C47.71686035 72.18728271 47.91199219 72.8936084 48.11303711 73.62133789 C52.94280381 92.61856232 51.70922852 111.32858839 51.70922852 130.91845703 C-18.25077148 130.91845703 -88.21077148 130.91845703 -160.29077148 130.91845703 C-152.62405979 153.91859212 -143.92804426 169.02263801 -122.54077148 180.60595703 C-111.44273982 185.75666369 -101.03340894 187.56584545 -88.95947266 187.38500977 C-86.85751008 187.3560155 -84.75808445 187.36446712 -82.65600586 187.37744141 C-70.35372678 187.36075025 -57.88977456 186.17124259 -46.91577148 180.16845703 C-45.9204541 179.64674927 -45.9204541 179.64674927 -44.9050293 179.11450195 C-38.78939929 175.82267813 -32.48254574 172.23691503 -28.59124756 166.34529114 C-26.29077148 163.91845703 -26.29077148 163.91845703 -23.26617432 163.31718445 C-22.08480896 163.32828751 -20.9034436 163.33939056 -19.6862793 163.35083008 C-19.03220596 163.35009995 -18.37813263 163.34936981 -17.70423889 163.34861755 C-15.54993714 163.35209129 -13.39781867 163.39093458 -11.24389648 163.43017578 C-9.74746888 163.43950486 -8.25102598 163.44662053 -6.75457764 163.45161438 C-2.82177337 163.4706773 1.11010307 163.5197703 5.0425415 163.57513428 C9.05761158 163.62634303 13.07283204 163.64913178 17.08813477 163.67431641 C24.9622578 163.72789122 32.83562764 163.81319371 40.70922852 163.91845703 C30.95242659 193.6075386 7.22482825 216.73919353 -20.04418945 230.8659668 C-28.97304573 235.35263116 -37.95865143 238.74640389 -47.66577148 241.10595703 C-48.61806641 241.33859253 -48.61806641 241.33859253 -49.58959961 241.57592773 C-62.04183757 244.40108311 -74.55691682 245.33046481 -87.29077148 245.29345703 C-88.35994308 245.2926413 -88.35994308 245.2926413 -89.45071411 245.29180908 C-128.30490328 245.15656623 -162.60590507 231.46891432 -190.27124023 204.00830078 C-218.80879086 174.6474562 -226.11050463 137.83175154 -225.63452148 98.30517578 C-225.31019576 81.3948954 -221.63010189 65.18092822 -214.29077148 49.91845703 C-213.96592773 49.23734863 -213.64108398 48.55624023 -213.30639648 47.85449219 C-199.17084618 18.60102358 -175.74484423 -2.78657576 -146.29077148 -16.08154297 C-144.78063477 -16.78730469 -144.78063477 -16.78730469 -143.23999023 -17.50732422 C-98.99448482 -36.43619607 -38.04728636 -30.11569887 0 0 Z " fill="#FDFDFD" transform="translate(1280.290771484375,125.08154296875)"/>
<path d="M0 0 C12.67287305 9.73604152 23.36535453 23.8934987 26 40 C27.73965327 59.00867211 25.0941051 75.36805751 12.93359375 90.5859375 C8.21079233 96.05617358 3.11832096 101.09358789 -3 105 C-3.66 105 -4.32 105 -5 105 C-4.43623657 105.97718994 -4.43623657 105.97718994 -3.86108398 106.97412109 C-3.32813721 107.89789551 -2.79519043 108.82166992 -2.24609375 109.7734375 C-1.64611572 110.81322754 -1.0461377 111.85301758 -0.42797852 112.92431641 C0.91458197 115.25177254 2.25662749 117.5795173 3.59790039 119.90771484 C7.06912446 125.93134098 10.54974164 131.94904497 14.0546875 137.953125 C41.36987326 184.81218169 41.36987326 184.81218169 34.7890625 213.28515625 C34.39847656 214.62900391 34.39847656 214.62900391 34 216 C33.67773438 217.11246094 33.35546875 218.22492188 33.0234375 219.37109375 C29.1511074 231.4362924 22.42606289 241.98357181 15.92626953 252.77636719 C12.7177106 258.14592513 9.61320662 263.57479753 6.5 269 C-1.18875318 282.35153679 -8.95484074 295.65735034 -16.72949219 308.95898438 C-18.46606835 311.93065503 -20.20198148 314.90271155 -21.9375 317.875 C-22.51322754 318.86072998 -23.08895508 319.84645996 -23.68212891 320.86206055 C-27.33167797 327.11806781 -30.9529145 333.38972924 -34.55981445 339.67041016 C-40.39217229 349.81845495 -46.27362001 359.93616274 -52.25 370 C-53.19830688 371.61249634 -53.19830688 371.61249634 -54.16577148 373.25756836 C-54.75559814 374.2450708 -55.3454248 375.23257324 -55.953125 376.25 C-56.47036133 377.12140625 -56.98759766 377.9928125 -57.52050781 378.890625 C-59 381 -59 381 -62 383 C-65.375 383 -65.375 383 -69 382 C-73.70356955 377.17942623 -76.7133429 371.49531961 -79.9375 365.625 C-81.07647209 363.57720479 -82.21715756 361.5303618 -83.359375 359.484375 C-84.24592773 357.89592773 -84.24592773 357.89592773 -85.15039062 356.27539062 C-88.8445811 349.73351373 -92.67545433 343.27010755 -96.50561523 336.80712891 C-97.06450439 335.85757324 -97.62339355 334.90801758 -98.19921875 333.9296875 C-98.69252686 333.09679199 -99.18583496 332.26389648 -99.6940918 331.40576172 C-100.34051636 330.21490967 -100.34051636 330.21490967 -101 329 C-101.44432373 328.18490967 -101.88864746 327.36981934 -102.34643555 326.5300293 C-103 324 -103 324 -102.01220703 321.39819336 C-101.14378174 320.0080603 -101.14378174 320.0080603 -100.2578125 318.58984375 C-99.61183105 317.53192627 -98.96584961 316.47400879 -98.30029297 315.3840332 C-97.9465863 314.82366364 -97.59287964 314.26329407 -97.22845459 313.6859436 C-95.72190705 311.29879198 -94.2554472 308.88787059 -92.78579712 306.47789001 C-92.01637971 305.21722446 -91.24484078 303.95785149 -90.47128296 302.69972229 C-86.80519955 296.72844067 -83.31906247 290.66217424 -79.86734009 284.56515503 C-74.62051678 275.29830048 -69.31508263 266.06664908 -63.9375 256.875 C-57.11689188 245.2161328 -50.3573413 233.52273469 -43.62109375 221.81494141 C-42.18807967 219.32659014 -40.75119504 216.84053775 -39.3125 214.35546875 C-38.58320806 213.09121809 -37.85402813 211.8269028 -37.125 210.5625 C-36.23167969 209.01755859 -36.23167969 209.01755859 -35.3203125 207.44140625 C-32.4114458 202.0625847 -32.25941644 196.97882365 -33 191 C-34.08810664 188.37101388 -34.08810664 188.37101388 -35.62109375 185.85546875 C-36.16757568 184.90075684 -36.71405762 183.94604492 -37.27709961 182.96240234 C-37.84565674 181.98480957 -38.41421387 181.0072168 -39 180 C-40.05555456 178.10218694 -41.1076282 176.20243373 -42.15625 174.30078125 C-48.20039645 163.4594931 -54.31055161 152.66049321 -60.5625 141.9375 C-61.13355469 140.9575708 -61.70460938 139.9776416 -62.29296875 138.96801758 C-63.36569855 137.1357023 -64.44744961 135.30862892 -65.53955078 133.48779297 C-66.45772864 131.92372872 -67.33765779 130.33591599 -68.15966797 128.71923828 C-71.37980833 122.69677394 -75.53171619 120.06885929 -82 118 C-87.8535039 117.29429258 -93.65060245 117.31855294 -99.5390625 117.37109375 C-101.23196566 117.37026348 -102.92486873 117.36779815 -104.61776733 117.36378479 C-108.14972464 117.36093992 -111.68104318 117.37550153 -115.21289062 117.40307617 C-119.72309129 117.43720962 -124.23215501 117.43111102 -128.74241066 117.4124136 C-132.23248657 117.40181043 -135.72230111 117.41081051 -139.21235275 117.42579842 C-140.87480263 117.43095286 -142.5372801 117.43053195 -144.1997261 117.42425346 C-157.49272054 117.21716563 -157.49272054 117.21716563 -168.80371094 123.63745117 C-173.37048271 130.28268959 -177.31011729 137.28481952 -181.25 144.3125 C-182.32903323 146.22587952 -183.4096276 148.13836515 -184.4911499 150.05033875 C-185.46330981 151.77070268 -186.43147654 153.49332132 -187.39941406 155.21606445 C-188.53136206 157.18488737 -189.74026011 159.11039016 -191 161 C-193.48425883 161.28672361 -195.71860892 161.3786773 -198.20361328 161.34057617 C-198.9451767 161.34101425 -199.68674011 161.34145233 -200.45077515 161.34190369 C-202.90755331 161.33980979 -205.36365322 161.31645125 -207.8203125 161.29296875 C-209.52138903 161.28737491 -211.22247038 161.28310381 -212.92355347 161.28010559 C-217.4051849 161.26864004 -221.88652559 161.23915835 -226.36804199 161.20599365 C-230.93933173 161.17532948 -235.51066835 161.16160809 -240.08203125 161.14648438 C-249.05481539 161.11429013 -258.02738354 161.06307329 -267 161 C-265.60647182 157.44492525 -264.06564644 154.15024908 -262.19921875 150.81640625 C-261.64105469 149.81794678 -261.08289063 148.8194873 -260.5078125 147.79077148 C-259.90710938 146.72544189 -259.30640625 145.6601123 -258.6875 144.5625 C-258.06230469 143.45011963 -257.43710937 142.33773926 -256.79296875 141.19165039 C-251.74748698 132.24952575 -246.56286826 123.39639075 -241.3046875 114.578125 C-238.94125293 110.60823791 -236.62020003 106.61640797 -234.3203125 102.609375 C-233.70349609 101.53824463 -233.08667969 100.46711426 -232.45117188 99.36352539 C-231.27257124 97.31373719 -230.09901543 95.26103611 -228.93164062 93.20483398 C-217.16081542 72.78609128 -201.23233632 59.32407215 -178.484375 52.578125 C-172.91687132 51.28254238 -167.48396209 50.8761592 -161.77954102 50.88647461 C-161.09576889 50.88632858 -160.41199677 50.88618256 -159.70750427 50.8860321 C-157.47293803 50.88672245 -155.23845772 50.89447323 -153.00390625 50.90234375 C-151.44449407 50.90421105 -149.88508131 50.90563348 -148.32566833 50.90663147 C-144.24043124 50.91043204 -140.15523025 50.92024109 -136.07000732 50.93133545 C-131.89368172 50.94160269 -127.71735024 50.94614043 -123.54101562 50.95117188 C-115.3606606 50.96186577 -107.1803348 50.97891235 -99 51 C-98.90497444 49.75996971 -98.90497444 49.75996971 -98.80802917 48.49488831 C-98.72209 47.41190964 -98.63615082 46.32893097 -98.54760742 45.21313477 C-98.42164436 43.60185448 -98.42164436 43.60185448 -98.2931366 41.95802307 C-96.89381198 27.83752581 -88.75260891 15.78618071 -79 6 C-78.38511719 5.36191406 -77.77023437 4.72382813 -77.13671875 4.06640625 C-56.23293645 -16.03166282 -23.17013144 -15.45691663 0 0 Z " fill="#FE3B81" transform="translate(431,11)"/>
<path d="M0 0 C1.82013362 -0.00379338 3.64026434 -0.00930174 5.46038818 -0.01637268 C10.35010772 -0.0301989 15.23947042 -0.01925473 20.1291697 -0.00266147 C25.26199317 0.01128842 30.39479803 0.00471876 35.52763367 0.00120544 C44.12899473 -0.0014857 52.73021533 0.01189508 61.33154297 0.03515625 C71.27821885 0.06186926 81.22466171 0.06347423 91.17136127 0.05176789 C100.75876876 0.04100352 110.34609189 0.0471595 119.93349266 0.06132317 C124.00881124 0.06708358 128.0840681 0.06700014 132.15938759 0.06225777 C136.94565471 0.05749744 141.73166506 0.0675501 146.5178833 0.08921242 C148.27592795 0.09478932 150.03399724 0.09523733 151.79204369 0.09025955 C154.18577226 0.08432984 156.57870924 0.09676552 158.97236633 0.11402893 C159.67253933 0.10801889 160.37271232 0.10200884 161.09410268 0.09581667 C163.94182114 0.13333938 165.82856935 0.21304299 168.21095562 1.84963894 C169.2487793 3.50170898 169.2487793 3.50170898 169.13037109 6.32250977 C168.18785167 9.7214264 166.91745504 12.32289711 165.14331055 15.36889648 C164.49579834 16.49094482 163.84828613 17.61299316 163.18115234 18.76904297 C162.47474056 19.97172318 161.76811139 21.17427574 161.0612793 22.37670898 C160.34018614 23.61851544 159.61989929 24.86079043 158.90039062 26.10351562 C157.05529904 29.28537372 155.19944065 32.46080656 153.34069824 35.63470459 C151.61349947 38.58793451 149.89642629 41.54700083 148.1784668 44.50561523 C144.88100815 50.17823708 141.58158512 55.84975904 138.2487793 61.50170898 C137.84235828 62.36192343 137.43593727 63.22213787 137.01720047 64.10841942 C135.2487793 66.50170898 135.2487793 66.50170898 132.69713974 67.12418556 C131.66921436 67.12305449 130.64128899 67.12192341 129.58221436 67.12075806 C128.40181076 67.13171005 127.22140717 67.14266205 126.00523376 67.15394592 C124.70856277 67.14060715 123.41189178 67.12726837 122.07592773 67.11352539 C120.69769063 67.11706603 119.31945771 67.12284297 117.9412384 67.13069153 C114.97160227 67.14288251 112.00254025 67.13938976 109.03292084 67.12385941 C104.33430256 67.09956503 99.63618806 67.11102941 94.93756104 67.12753296 C86.65449038 67.15204784 78.371648 67.14622328 70.08856201 67.13372803 C57.63202729 67.11516578 45.17553715 67.12003777 32.71903443 67.15376222 C28.0518491 67.16525747 23.38503024 67.16086196 18.71786547 67.14374185 C15.80795975 67.1358221 12.89815975 67.14010955 9.98825645 67.1474514 C8.00363073 67.14864296 6.01901359 67.13483749 4.03443909 67.12052917 C-3.10821351 67.15237007 -8.80540381 67.28062295 -14.53637695 71.95898438 C-18.5773625 76.95074462 -21.68084458 82.30882574 -24.7512207 87.93920898 C-25.88897789 89.98955777 -27.02835575 92.03900791 -28.16918945 94.08764648 C-29.04776611 95.66884277 -29.04776611 95.66884277 -29.9440918 97.28198242 C-32.9183162 102.58110043 -35.99038801 107.82214876 -39.0637207 113.06420898 C-40.23051005 115.06023102 -41.3971807 117.05632246 -42.5637207 119.05249023 C-44.08346727 121.65127487 -45.60355487 124.24984854 -47.1262207 126.84692383 C-48.27685592 128.81244251 -49.4213672 130.78136955 -50.5637207 132.75170898 C-51.16829102 133.78811523 -51.77286133 134.82452148 -52.39575195 135.89233398 C-54.83325676 140.58470636 -55.56516423 145.23045567 -54.7512207 150.50170898 C-53.3768143 154.03207613 -51.53093028 157.23293955 -49.6262207 160.50170898 C-49.08924561 161.45303711 -48.55227051 162.40436523 -47.99902344 163.38452148 C-46.26892946 166.4350224 -44.51287048 169.46933729 -42.7512207 172.50170898 C-42.17936035 173.49428711 -41.6075 174.48686523 -41.01831055 175.50952148 C-38.13211378 180.5184747 -35.22231847 185.51233495 -32.2824707 190.48999023 C-29.88663289 194.54820555 -27.53781876 198.62894283 -25.2199707 202.73217773 C-24.64754639 203.73313477 -24.07512207 204.7340918 -23.48535156 205.76538086 C-22.40385651 207.65701001 -21.33355801 209.55510365 -20.27685547 211.46069336 C-16.58527941 217.86063455 -12.99035733 222.08866344 -5.7512207 224.50170898 C-3.77826707 224.49599064 -3.77826707 224.49599064 -1.62548828 224.26269531 C33.78783754 221.30954269 33.78783754 221.30954269 41.64819336 227.8737793 C47.05132978 234.26344925 49.87714068 241.80460321 52.70336914 249.58227539 C55.12045368 256.02113716 58.82717863 261.7630358 62.3737793 267.62670898 C63.56805461 269.68940373 64.75837303 271.75439624 65.9440918 273.82202148 C68.61243165 278.44181036 71.36586685 283.00275115 74.17797852 287.53637695 C75.2487793 289.50170898 75.2487793 289.50170898 75.2487793 291.50170898 C63.67752486 291.59495095 52.1063618 291.66574641 40.53480625 291.70895767 C35.15994936 291.72971121 29.78535208 291.75780163 24.41064453 291.8034668 C19.21048926 291.84736552 14.01058152 291.87093771 8.81025505 291.88121796 C6.83980355 291.88853117 4.86936349 291.90280854 2.89901924 291.92462921 C-12.30166806 292.08606494 -27.53331752 291.19925043 -41.1887207 283.75170898 C-41.84283936 283.40954346 -42.49695801 283.06737793 -43.17089844 282.71484375 C-48.90955844 279.61575494 -53.93188886 275.89845016 -58.7512207 271.50170898 C-59.3596582 270.98479492 -59.9680957 270.46788086 -60.5949707 269.93530273 C-72.68573202 258.97118054 -79.82788843 241.76428533 -87.79719543 227.70118713 C-90.91693294 222.19961652 -94.07653154 216.72170584 -97.2512207 211.25170898 C-97.71383301 210.45418213 -98.17644531 209.65665527 -98.65307617 208.83496094 C-99.68506937 207.05679127 -100.71801441 205.27917405 -101.7512207 203.50170898 C-105.32134721 204.11373067 -108.42112222 205.08641713 -111.7512207 206.50170898 C-125.37987113 212.29388541 -143.95143996 211.45471196 -157.5559082 206.05249023 C-162.6163633 203.59649919 -167.23673214 200.85657932 -171.7512207 197.50170898 C-172.80889648 196.73600586 -172.80889648 196.73600586 -173.88793945 195.95483398 C-185.02944854 187.11167157 -193.81762391 171.64638987 -195.7512207 157.50170898 C-196.87612386 139.17213775 -194.22825757 122.0669988 -181.8894043 107.65600586 C-174.23299761 99.22130106 -165.49077228 92.44335291 -154.7512207 88.50170898 C-153.72254883 88.05504883 -153.72254883 88.05504883 -152.6730957 87.59936523 C-139.06632973 82.43735786 -123.13401149 84.97469087 -109.7512207 89.50170898 C-108.62458008 89.87553711 -107.49793945 90.24936523 -106.3371582 90.63452148 C-105.48379883 90.92069336 -104.63043945 91.20686523 -103.7512207 91.50170898 C-103.43072754 90.9306543 -103.11023438 90.35959961 -102.7800293 89.77124023 C-94.7369088 75.45465646 -86.59384479 61.20069832 -78.25512695 47.05395508 C-77.33560714 45.4934583 -76.41836964 43.93161024 -75.50512695 42.36743164 C-64.2012619 23.03319626 -49.64137792 8.42545778 -27.64241028 2.41685486 C-18.4134458 0.06654784 -9.47383651 -0.05709566 0 0 Z " fill="#FDC300" transform="translate(196.751220703125,201.498291015625)"/>
<path d="M0 0 C0.66 0 1.32 0 2 0 C2.35078613 0.63164062 2.70157227 1.26328125 3.06298828 1.9140625 C9.5648459 13.60771767 16.10870111 25.26930142 22.875 36.8125 C27.82094994 45.25620084 32.74484729 53.71180519 37.61651611 62.19857788 C38.32194362 63.4262919 39.02873797 64.65322172 39.73699951 65.87930298 C50.814848 85.06364439 55.80123123 104.73581705 50.5 126.8125 C45.57688889 142.41654768 37.10149037 156.20029555 28.71972656 170.13769531 C25.82766143 174.95123473 22.96028331 179.77779831 20.125 184.625 C19.59487305 185.50768555 19.06474609 186.39037109 18.51855469 187.29980469 C17.8016748 188.5319873 17.8016748 188.5319873 17.0703125 189.7890625 C16.64508301 190.50787598 16.21985352 191.22668945 15.78173828 191.96728516 C14.82911422 194.44434573 15.03619412 195.55894081 16 198 C17.58015754 199.75484598 17.58015754 199.75484598 19.5625 201.4375 C27.4098884 209.01672225 32.63312881 218.37842104 35 229 C35.16983398 229.60134766 35.33966797 230.20269531 35.51464844 230.82226562 C38.20158846 242.87835467 37.06702526 257.77677583 32 269 C31.57589844 269.94746094 31.15179687 270.89492188 30.71484375 271.87109375 C27.21052178 278.90902171 22.53143234 284.45907979 17 290 C16.04287109 290.97453125 16.04287109 290.97453125 15.06640625 291.96875 C2.75875979 303.63670589 -13.91181969 307.65615781 -30.40625 307.34375 C-47.51181573 306.4769139 -62.56542244 297.23614308 -74 285 C-81.21472569 275.76726146 -85.66071507 265.57673149 -87 254 C-87.79211884 254.00444122 -88.58423767 254.00888245 -89.40036011 254.01345825 C-96.90247142 254.05370152 -104.40452964 254.08406849 -111.90672112 254.10362434 C-115.7627311 254.1140165 -119.61865114 254.12809113 -123.47460938 254.15087891 C-127.20288083 254.17277165 -130.9310663 254.18460289 -134.65939713 254.18975449 C-136.07459998 254.19342099 -137.48979867 254.20057986 -138.90496445 254.21146011 C-146.86303923 254.27015455 -154.27432472 253.98263531 -162 252 C-163.09828125 251.73960937 -164.1965625 251.47921875 -165.328125 251.2109375 C-178.57675215 247.42055487 -189.32734894 240.79508969 -199 231 C-199.59941406 230.4225 -200.19882812 229.845 -200.81640625 229.25 C-206.58318482 223.25576148 -210.41131831 215.82816331 -214.49121094 208.64794922 C-216.11944846 205.79036602 -217.76506139 202.94330603 -219.4140625 200.09765625 C-226.34886962 188.12466216 -233.2219173 176.11703598 -240.07598877 164.0977478 C-244.67302277 156.03901168 -249.31284977 148.00668632 -254 140 C-260.70923977 128.5369101 -267.30475662 117.01030364 -273.88069153 105.4704895 C-276.42778657 101.001246 -278.98040515 96.53518341 -281.53515625 92.0703125 C-282.27946441 90.76920846 -283.02376786 89.46810173 -283.76806641 88.16699219 C-284.84585798 86.28294824 -285.92377436 84.39897639 -287.00213623 82.51525879 C-287.99020188 80.78910245 -288.97754076 79.06253017 -289.96484375 77.3359375 C-290.5280835 76.35157715 -291.09132324 75.3672168 -291.67163086 74.35302734 C-293.97782819 70.26790882 -294.49455417 67.78069027 -294 63 C-290.36754229 59.26091647 -287.72708894 58.47870106 -282.5925293 58.33959961 C-281.31737961 58.29794174 -280.04222992 58.25628387 -278.72843933 58.21336365 C-277.34373605 58.19064957 -275.958991 58.17036993 -274.57421875 58.15234375 C-273.52039977 58.13350726 -273.52039977 58.13350726 -272.44529152 58.11429024 C-268.727246 58.04861685 -265.00980886 58.00653795 -261.29125977 57.98413086 C-257.46556754 57.95661593 -253.64640008 57.85017248 -249.82283306 57.7250433 C-246.86710882 57.64267659 -243.91292977 57.61901092 -240.95615578 57.61084175 C-239.54729868 57.59696555 -238.13847074 57.56147806 -236.73074913 57.50324821 C-232.20055915 57.3286751 -228.27717999 57.43842066 -224 59 C-220.32661908 62.95838423 -218.28143857 67.0986671 -216 72 C-214.77839636 74.14704877 -213.54116561 76.28536296 -212.28125 78.41015625 C-211.0186745 80.62637568 -209.75833285 82.84386892 -208.5 85.0625 C-207.80900622 86.27650935 -207.11775646 87.49037304 -206.42626953 88.70410156 C-204.99569043 91.2157104 -203.56618629 93.72792561 -202.13769531 96.24072266 C-198.72276522 102.24721949 -195.30054951 108.24955409 -191.875 114.25 C-191.54250244 114.83258575 -191.21000488 115.41517151 -190.86743164 116.01541138 C-185.73521416 125.00441993 -180.5549449 133.9643618 -175.30175781 142.88330078 C-172.44447832 147.74815656 -169.63412124 152.6323724 -166.91485596 157.57550049 C-165.50462879 160.13829148 -164.08224734 162.69426642 -162.66015625 165.25048828 C-161.98012105 166.48192939 -161.30640252 167.71688401 -160.63964844 168.95556641 C-156.24704317 177.11294273 -152.13247677 183.95584108 -143 187 C-140.5688787 187.11099723 -138.16562514 187.16759484 -135.73388672 187.17700195 C-134.62837715 187.18685875 -134.62837715 187.18685875 -133.50053406 187.19691467 C-131.06025078 187.21663055 -128.62002913 187.22830896 -126.1796875 187.23828125 C-124.92640341 187.24439454 -124.92640341 187.24439454 -123.64780045 187.25063133 C-119.22190855 187.27148887 -114.79604759 187.28578964 -110.37011719 187.29516602 C-105.81399174 187.30620515 -101.25835809 187.34057678 -96.70240593 187.38033772 C-93.18662656 187.40657789 -89.67096281 187.41486459 -86.15509415 187.41844749 C-84.47668273 187.42329758 -82.79827593 187.43486626 -81.11996078 187.45348549 C-68.44484565 187.82677511 -68.44484565 187.82677511 -57 183 C-55.0013285 181.18248125 -55.0013285 181.18248125 -53.875 179.00390625 C-53.40578125 178.21387207 -52.9365625 177.42383789 -52.453125 176.60986328 C-51.97359375 175.7486084 -51.4940625 174.88735352 -51 174 C-50.45859375 173.08331543 -49.9171875 172.16663086 -49.359375 171.22216797 C-47.54550074 168.14236063 -45.76995032 165.0427416 -44 161.9375 C-42.68032077 159.6337482 -41.36008732 157.33032328 -40.0390625 155.02734375 C-39.53882065 154.15425064 -39.53882065 154.15425064 -39.0284729 153.26351929 C-36.73653182 149.26795062 -34.41864894 145.28836801 -32.0859375 141.31640625 C-31.46203125 140.25365479 -30.838125 139.19090332 -30.1953125 138.09594727 C-29.01805892 136.09370041 -27.83852433 134.0927922 -26.65625 132.09350586 C-25.07998542 129.4088124 -23.53856684 126.70641909 -22 124 C-21.50274414 123.18015625 -21.00548828 122.3603125 -20.49316406 121.515625 C-16.83085517 115.05968118 -15.73500772 109.36834043 -17 102 C-18.42037043 98.07827531 -20.35192668 94.62874369 -22.5 91.0625 C-23.31343872 89.63852905 -23.31343872 89.63852905 -24.14331055 88.18579102 C-26.54131005 84.02043359 -29.02726598 79.91830683 -31.61328125 75.8671875 C-31.9896875 75.27542725 -32.36609375 74.68366699 -32.75390625 74.07397461 C-33.73695627 72.55428267 -34.75201102 71.05542491 -35.76953125 69.55859375 C-37.30216299 66.37169282 -36.95868377 65.35812534 -36 62 C-35.03374458 60.04129915 -33.98944491 58.12026308 -32.89453125 56.23046875 C-31.92362549 54.5431665 -31.92362549 54.5431665 -30.93310547 52.82177734 C-30.22642718 51.6102406 -29.5195542 50.3988174 -28.8125 49.1875 C-28.08943851 47.93734007 -27.36695167 46.6868476 -26.64501953 45.43603516 C-24.79751428 42.23938713 -22.94136825 39.04785556 -21.08221436 35.85797119 C-20.04280084 34.07348149 -19.00552723 32.28777053 -17.96923828 30.50146484 C-10.94173056 18.38917118 -10.94173056 18.38917118 -7.54199219 12.62402344 C-6.46413911 10.78983013 -5.39800462 8.94872261 -4.34082031 7.10253906 C-3.80811523 6.1844043 -3.27541016 5.26626953 -2.7265625 4.3203125 C-2.01234131 3.07531982 -2.01234131 3.07531982 -1.28369141 1.80517578 C-0.86007324 1.20946777 -0.43645508 0.61375977 0 0 Z " fill="#8658F1" transform="translate(495,239)"/>
<path d="M0 0 C20.46 0 40.92 0 62 0 C62 65.34 62 130.68 62 198 C41.87 198 21.74 198 1 198 C1 161.37 1 124.74 1 87 C0.34 87 -0.32 87 -1 87 C-1.2789209 87.58289795 -1.5578418 88.1657959 -1.84521484 88.76635742 C-2.93790888 90.87990029 -4.12950894 92.7794555 -5.4765625 94.73828125 C-6.22280884 95.82677368 -6.22280884 95.82677368 -6.98413086 96.93725586 C-7.52561768 97.72108643 -8.06710449 98.50491699 -8.625 99.3125 C-9.19549072 100.14209229 -9.76598145 100.97168457 -10.35375977 101.82641602 C-22.70707806 119.76540912 -35.20842623 137.60196588 -47.70898438 155.43847656 C-54.50589917 165.13783672 -61.29331775 174.84375985 -68.0625 184.5625 C-68.66239746 185.42270752 -69.26229492 186.28291504 -69.88037109 187.16918945 C-76.31019803 196.4083378 -82.64299904 205.7089986 -89 215 C-27.95 215 33.1 215 96 215 C96 233.48 96 251.96 96 271 C84.78 271 73.56 271 62 271 C62 294.43 62 317.86 62 342 C41.54 342 21.08 342 0 342 C0 318.57 0 295.14 0 271 C-51.15 271 -102.3 271 -155 271 C-155 215.69933499 -155 215.69933499 -130.62939453 182.23828125 C-127.89118627 178.47683484 -125.16335074 174.7079078 -122.4375 170.9375 C-121.89867187 170.19234131 -121.35984375 169.44718262 -120.8046875 168.67944336 C-116.6671149 162.94728518 -112.58567457 157.17707224 -108.51928711 151.39428711 C-104.34744926 145.47020892 -100.10686623 139.59759925 -95.85546875 133.73046875 C-92.20004412 128.67917792 -88.58642038 123.60047648 -85 118.5 C-80.33863251 111.87077288 -75.61055569 105.29271463 -70.85546875 98.73046875 C-67.20004412 93.67917792 -63.58642038 88.60047648 -60 83.5 C-55.33863251 76.87077288 -50.61055569 70.29271463 -45.85546875 63.73046875 C-41.69544701 57.98189455 -37.5961582 52.19275972 -33.51513672 46.38793945 C-29.40172566 40.54635717 -25.21690571 34.75851752 -21.02026367 28.9765625 C-16.0921299 22.16790795 -11.27739489 15.28187463 -6.49267578 8.37182617 C-5.65518799 7.16683472 -5.65518799 7.16683472 -4.80078125 5.9375 C-4.30747314 5.22464844 -3.81416504 4.51179688 -3.3059082 3.77734375 C-2 2 -2 2 0 0 Z " fill="#FEFEFE" transform="translate(1505,21)"/>
<path d="M0 0 C20.46 0 40.92 0 62 0 C62.029729 6.62292114 62.029729 6.62292114 62.06005859 13.37963867 C62.12706164 27.99209413 62.20460228 42.60447978 62.28752708 57.21685314 C62.33753257 66.07350648 62.38397631 74.93015113 62.421875 83.78686523 C62.45493771 91.5112834 62.49484647 99.23563156 62.54279006 106.9599722 C62.56791393 111.04548225 62.58973588 115.1309467 62.60334396 119.21651268 C62.61629368 123.071819 62.63848315 126.92696782 62.66738319 130.78218651 C62.6763592 132.18769616 62.68212546 133.59323109 62.68421364 134.99876785 C62.7205202 155.74772095 66.79375668 175.04655563 81.35546875 190.57421875 C94.33676147 202.48172655 109.56695754 206.17342068 126.625 206.25 C127.75035156 206.270625 128.87570312 206.29125 130.03515625 206.3125 C137.50750837 206.34705423 143.92332869 205.38960135 151 203 C152.11632813 202.62359375 153.23265625 202.2471875 154.3828125 201.859375 C168.27775371 196.23805975 178.33294109 186.7922812 184.6875 173.16796875 C190.60974502 158.87350236 192.2932962 144.67953491 192.31884766 129.30541992 C192.32817285 127.8847956 192.33834525 126.46417662 192.34928894 125.04356384 C192.37631146 121.23041693 192.39165476 117.41730635 192.40471697 113.6040895 C192.42047062 109.60290524 192.44722101 105.60179392 192.4727478 101.60066223 C192.51932096 94.04335546 192.55616811 86.48603463 192.58942068 78.92865878 C192.62779482 70.31662573 192.67716431 61.70466632 192.72740483 53.09269559 C192.83040503 35.39517829 192.9183171 17.69762942 193 0 C213.46 0 233.92 0 255 0 C255.02262919 18.66386255 255.04102696 37.32771387 255.05181217 55.99158669 C255.05695446 64.65878416 255.06395749 73.32597247 255.07543945 81.99316406 C255.08544975 89.55310363 255.09186845 97.11303656 255.09408849 104.67298257 C255.09538488 108.67078689 255.09840215 112.6685722 255.10573006 116.66637039 C255.11259071 120.44034829 255.11459684 124.21429962 255.11310768 127.98828316 C255.11350775 130.01093513 255.11885001 132.0335843 255.12442017 134.05622864 C255.08354783 170.90376083 246.053945 205.02990543 220.25 232.1875 C195.27966882 256.18546625 161.99547022 265.35072911 128.125 265.375 C127.39363831 265.37699402 126.66227661 265.37898804 125.90875244 265.38104248 C112.28998309 265.37683644 98.68746239 264.43343888 85.5 260.8125 C84.71157715 260.59891846 83.9231543 260.38533691 83.11083984 260.1652832 C65.39775331 255.14734616 49.75986023 246.24011447 36 234 C34.73542969 232.87851562 34.73542969 232.87851562 33.4453125 231.734375 C11.65221087 211.23120774 0.75865084 179.39975413 -0.29328132 150.02050656 C-0.53731538 140.73802101 -0.46971639 131.45147285 -0.40557575 122.16700101 C-0.38018345 117.85631018 -0.37819087 113.5456021 -0.37347412 109.23484802 C-0.36115345 101.11108524 -0.32848341 92.98754362 -0.28807616 84.86387724 C-0.24301395 75.59873903 -0.22128576 66.33358899 -0.20129442 57.06836808 C-0.15973792 38.04542872 -0.08652623 19.02279163 0 0 Z " fill="#FEFEFE" transform="translate(1625,105)"/>
<path d="M0 0 C11.06999044 8.30249283 19.00819259 19.71825317 21.6875 33.42578125 C23.68277612 49.86186832 20.66749023 64.40124703 10.92578125 77.8671875 C1.19711872 89.35993426 -11.22969896 94.9533962 -26 97 C-41.93272613 98.10173106 -56.57088927 94.78506065 -69.046875 84.484375 C-80.14414818 73.98695442 -85.85394929 62.0396613 -86.3515625 46.75878906 C-86.50859878 32.04318085 -83.23354088 17.83017572 -72.92578125 6.75 C-52.36932288 -11.93010822 -23.85459086 -14.79629352 0 0 Z " fill="#FCFCFC" transform="translate(1651,428)"/>
<path d="M0 0 C10.70753644 7.88086972 17.48622976 18.21866076 21 31 C21.54198906 34.93672693 21.62173636 38.78019821 21.5625 42.75 C21.54606445 44.32044067 21.54606445 44.32044067 21.52929688 45.92260742 C21.11863834 60.72114415 16.40453427 72.73937899 5.71875 83.2421875 C-7.87575883 94.93876166 -23.49783215 98.14586527 -41 97 C-54.94641209 95.10837814 -67.55544563 87.99718589 -76.0625 76.875 C-86.05187416 62.69468151 -87.14458361 48.90978412 -86 32 C-83.71238863 18.8669058 -75.61730938 7.78097101 -65 0 C-44.97646629 -12.23362955 -20.06754772 -12.7196523 0 0 Z " fill="#FCFCFC" transform="translate(1233,428)"/>
<path d="M0 0 C7.92 0 15.84 0 24 0 C24 9.57 24 19.14 24 29 C41.16 29 58.32 29 76 29 C76 36.26 76 43.52 76 51 C58.84 51 41.68 51 24 51 C24.103125 58.095 24.20625 65.19 24.3125 72.5 C24.33739502 74.72427734 24.36229004 76.94855469 24.38793945 79.24023438 C24.42025752 81.02476039 24.45363518 82.80926766 24.48828125 84.59375 C24.49764709 85.95741699 24.49764709 85.95741699 24.50720215 87.34863281 C24.63827222 93.21421704 25.51676116 97.65893269 28 103 C33.22352137 107.96871545 36.91578654 108.36224682 43.9453125 108.26953125 C48.52313167 107.86560603 50.47836736 106.99713416 54 104 C57.02835847 98.91145714 57.26004355 93.9196516 58 88 C65.92 88 73.84 88 82 88 C82 100.27015778 80.5808425 111.27868363 72.33203125 120.95703125 C68.40985316 124.50224944 63.87411917 126.99568931 59 129 C57.74123047 129.53947266 57.74123047 129.53947266 56.45703125 130.08984375 C51.53870459 131.38472523 46.81454515 131.32879519 41.75 131.3125 C40.76386719 131.32861328 39.77773437 131.34472656 38.76171875 131.36132812 C26.91490189 131.36913235 18.64407901 128.31798924 10.08984375 120.18359375 C1.38395957 111.03409764 -0.16242896 100.49399015 -0.11352539 88.32275391 C-0.11367142 87.36602783 -0.11381744 86.40930176 -0.1139679 85.42358398 C-0.11327357 82.27455342 -0.10550369 79.12558268 -0.09765625 75.9765625 C-0.09579036 73.78795402 -0.09436727 71.59934513 -0.09336853 69.41073608 C-0.08955679 63.6601241 -0.07973798 57.90953752 -0.06866455 52.15893555 C-0.05842154 46.28695011 -0.05386472 40.41496055 -0.04882812 34.54296875 C-0.0381145 23.0286329 -0.02052858 11.51432254 0 0 Z " fill="#FCFCFC" transform="translate(1428,393)"/>
<path d="M0 0 C1.7644043 -0.01740234 1.7644043 -0.01740234 3.56445312 -0.03515625 C11.43680843 -0.00904562 18.41214128 1.08958916 25.9375 3.375 C27.11183594 3.72820312 28.28617188 4.08140625 29.49609375 4.4453125 C49.13503848 11.64004123 61.48592998 25.25952756 70.87109375 43.61328125 C71.9375 46.375 71.9375 46.375 71.9375 51.375 C24.7475 51.375 -22.4425 51.375 -71.0625 51.375 C-68.98615703 36.84059924 -60.06507179 24.83063727 -49.0625 15.375 C-34.04048963 4.3771507 -18.53264123 -0.18339062 0 0 Z " fill="#202930" transform="translate(1193.0625,154.625)"/>
<path d="M0 0 C11.15984681 10.58707322 15.26993333 23.72321782 15.7434082 38.85180664 C15.85320745 46.18164733 15.79246122 53.50871539 15.6965332 60.83813477 C15.65503365 64.35162633 15.63722356 67.86523835 15.6171875 71.37890625 C15.57475585 78.22818344 15.50462203 85.07687336 15.421875 91.92578125 C7.171875 91.92578125 -1.078125 91.92578125 -9.578125 91.92578125 C-9.58223389 90.09998535 -9.58634277 88.27418945 -9.59057617 86.39306641 C-9.61005844 80.32596946 -9.65250036 74.25936357 -9.71021557 68.19251442 C-9.74434666 64.51807292 -9.76957364 60.84404104 -9.77368164 57.16943359 C-9.77799484 53.61583157 -9.80670268 50.06315135 -9.85155678 46.5098381 C-9.87065734 44.51052409 -9.86520389 42.51102336 -9.85917664 40.5116272 C-9.99412371 31.98924007 -11.18703908 24.80633747 -17.05583191 18.28335571 C-23.54260257 12.4984814 -30.45372328 12.40789124 -38.6796875 12.61328125 C-45.35949732 13.14873695 -48.72940688 15.07706313 -53.390625 19.73828125 C-58.93019963 27.81023285 -59.04553127 34.56247888 -59.08984375 44.171875 C-59.10671037 45.55194171 -59.12486326 46.93199325 -59.14424133 48.31202698 C-59.19153292 51.923729 -59.22147625 55.53536948 -59.24768066 59.14727783 C-59.27759219 62.84114737 -59.32408579 66.53480525 -59.36914062 70.22851562 C-59.45493635 77.46085005 -59.52085128 84.69315441 -59.578125 91.92578125 C-67.828125 91.92578125 -76.078125 91.92578125 -84.578125 91.92578125 C-84.66930173 84.37915385 -84.742338 76.83273849 -84.78537369 69.28569031 C-84.80605201 65.77944106 -84.83399578 62.27359526 -84.87988281 58.76757812 C-85.40162397 17.80630894 -85.40162397 17.80630894 -71.078125 1.73828125 C-52.42541219 -15.81093138 -19.6738334 -15.82849323 0 0 Z " fill="#F9F9FA" transform="translate(1768.578125,430.07421875)"/>
<path d="M0 0 C5.31166771 4.3107751 9.24226597 9.83226665 11.40625 16.32421875 C11.40625 18.96421875 11.40625 21.60421875 11.40625 24.32421875 C3.48625 24.32421875 -4.43375 24.32421875 -12.59375 24.32421875 C-13.25375 22.01421875 -13.91375 19.70421875 -14.59375 17.32421875 C-19.64106293 13.5931232 -27.5812777 13.55732177 -33.59375 14.32421875 C-37.10488043 15.66483219 -40.51782635 17.09500419 -42.59375 20.32421875 C-43.26051878 23.78171824 -43.26051878 23.78171824 -42.59375 27.32421875 C-36.14039 34.5598042 -24.00901492 34.39289769 -15.01757812 35.56054688 C-6.25866083 36.83910476 2.6047265 39.13032961 8.40625 46.32421875 C8.9425 46.96359375 9.47875 47.60296875 10.03125 48.26171875 C15.06860605 55.81775283 14.36200936 65.58137086 13.40625 74.32421875 C12.33977846 77.98069261 10.87867207 80.45444313 8.40625 83.32421875 C7.9215625 83.94167969 7.436875 84.55914062 6.9375 85.1953125 C-0.60277863 93.7890124 -11.48098478 97.45235797 -22.59375 98.32421875 C-36.82772495 99.20285918 -49.29447733 96.83341784 -60.34375 87.51171875 C-66.04134138 82.21619492 -68.85677183 76.99587233 -70.59375 69.32421875 C-70.59375 68.00421875 -70.59375 66.68421875 -70.59375 65.32421875 C-62.34375 65.32421875 -54.09375 65.32421875 -45.59375 65.32421875 C-44.60375 67.63421875 -43.61375 69.94421875 -42.59375 72.32421875 C-38.43699143 76.06148792 -33.96286105 75.77719344 -28.65625 75.69921875 C-27.47772461 75.71662109 -27.47772461 75.71662109 -26.27539062 75.734375 C-21.3311798 75.70955051 -17.85023317 75.09255743 -13.59375 72.32421875 C-11.45788322 69.12041858 -11.36242825 68.30481908 -11.46875 64.63671875 C-11.48679687 63.82847656 -11.50484375 63.02023437 -11.5234375 62.1875 C-11.54664063 61.57261719 -11.56984375 60.95773437 -11.59375 60.32421875 C-15.09043207 59.03596746 -18.541808 58.08672897 -22.19140625 57.375 C-23.07376953 57.20194336 -23.95613281 57.02888672 -24.86523438 56.85058594 C-27.45272891 56.35142361 -30.04071702 55.85492102 -32.62890625 55.359375 C-34.3046875 55.03515625 -35.98046875 54.7109375 -37.65625 54.38671875 C-38.48962891 54.23009766 -39.32300781 54.07347656 -40.18164062 53.91210938 C-57.86824507 50.45737185 -57.86824507 50.45737185 -62.96875 43.4296875 C-68.44462826 35.04474892 -68.61780446 26.12655243 -67.59375 16.32421875 C-65.31009449 7.60176866 -58.96325479 1.71548493 -51.515625 -2.98828125 C-35.55405001 -11.53463636 -14.9709439 -9.67249237 0 0 Z " fill="#FBFBFB" transform="translate(1124.59375,426.67578125)"/>
<path d="M0 0 C7.77417555 5.65138982 11.69132731 11.83933374 14.125 21.1875 C14.125 22.5075 14.125 23.8275 14.125 25.1875 C5.875 25.1875 -2.375 25.1875 -10.875 25.1875 C-11.535 23.2075 -12.195 21.2275 -12.875 19.1875 C-17.61440856 15.36737328 -23.66121135 14.59683638 -29.578125 14.86328125 C-33.83888056 15.46471443 -36.69026114 17.04225243 -39.75 20 C-41.29806061 23.01011785 -41.43129393 24.84973639 -40.875 28.1875 C-34.27204082 35.39072819 -22.38786597 35.24350424 -13.29882812 36.42382812 C-3.15928873 37.90391837 5.20843998 40.86373544 11.71875 49.09375 C16.16295786 55.7106817 17.06976005 62.30734228 16.125 70.1875 C13.64755221 81.01158738 7.8112868 87.70122477 -1.17578125 93.86328125 C-9.51547089 97.95467747 -17.55479438 98.70900925 -26.75 98.6875 C-27.84441406 98.71585938 -28.93882813 98.74421875 -30.06640625 98.7734375 C-41.33326549 98.80010462 -51.63057233 95.00771774 -59.875 87.1875 C-65.48775112 81.15283365 -68.875 74.51285994 -68.875 66.1875 C-60.625 66.1875 -52.375 66.1875 -43.875 66.1875 C-42.885 68.4975 -41.895 70.8075 -40.875 73.1875 C-36.71824143 76.92476917 -32.24411105 76.64047469 -26.9375 76.5625 C-25.75897461 76.57990234 -25.75897461 76.57990234 -24.55664062 76.59765625 C-19.6124298 76.57283176 -16.13148317 75.95583868 -11.875 73.1875 C-9.73913322 69.98369983 -9.64367825 69.16810033 -9.75 65.5 C-9.76804687 64.69175781 -9.78609375 63.88351562 -9.8046875 63.05078125 C-9.82789063 62.43589844 -9.85109375 61.82101562 -9.875 61.1875 C-10.74125 60.89875 -11.6075 60.61 -12.5 60.3125 C-14.54286082 59.63154639 -16.5774921 58.92406546 -18.59375 58.16796875 C-22.3060629 57.0586943 -25.91272509 56.70201026 -29.75 56.375 C-35.90977691 55.74603727 -41.70665821 54.64166733 -47.625 52.8125 C-48.60702393 52.51702271 -48.60702393 52.51702271 -49.60888672 52.21557617 C-56.48798965 49.9634356 -60.23491304 46.33799176 -63.875 40.1875 C-67.6534843 32.71208142 -67.12209208 22.02452218 -65.0703125 14.06640625 C-60.60021409 4.18594735 -52.39293722 -1.11604055 -42.57421875 -4.90234375 C-28.53567189 -9.63603611 -12.52295098 -7.73354423 0 0 Z " fill="#FBFBFB" transform="translate(1863.875,425.8125)"/>
<path d="M0 0 C7.92 0 15.84 0 24 0 C24.01458252 1.70462402 24.02916504 3.40924805 24.04418945 5.16552734 C24.09609071 10.83340794 24.16144186 16.50102984 24.23571491 22.16866112 C24.28021103 25.60086031 24.31951085 29.03294646 24.34643555 32.46533203 C24.37771427 36.42245073 24.43249342 40.37908569 24.48828125 44.3359375 C24.49467117 45.55300385 24.5010611 46.77007019 24.50764465 48.02401733 C24.68117603 58.1974322 25.83246248 66.88536527 33.13671875 74.37109375 C39.05420512 79.54424221 44.92185896 79.529922 52.55078125 79.3515625 C58.79464058 78.71515555 63.03678428 76.5791083 67.875 72.6875 C72.56801385 66.75221777 74.09488396 60.51347224 74.20532227 53.12988281 C74.22526749 51.94896057 74.24521271 50.76803833 74.26576233 49.55133057 C74.28247482 48.28142273 74.29918732 47.01151489 74.31640625 45.703125 C74.3475779 43.74726471 74.3475779 43.74726471 74.37937927 41.75189209 C74.43445236 38.29304192 74.4839264 34.8341336 74.53222656 31.37518311 C74.58254972 27.84251762 74.63817922 24.30993611 74.69335938 20.77734375 C74.80076024 13.85163385 74.90175433 6.92584576 75 0 C82.92 0 90.84 0 99 0 C99.09092615 8.12005472 99.16407214 16.23970341 99.20724869 24.36013317 C99.22798734 28.13212927 99.25604797 31.90375442 99.30175781 35.67553711 C99.34571327 39.32604345 99.3692398 42.97619653 99.37950897 46.6269474 C99.38681247 48.00901146 99.40107 49.39105958 99.42292023 50.7729702 C99.63785754 64.95044807 96.84563011 78.60124569 86.89453125 89.25390625 C75.90862 99.52128974 63.30232961 102.53739302 48.5 102.4375 C47.44941406 102.45748047 46.39882812 102.47746094 45.31640625 102.49804688 C32.66208086 102.49022591 22.80023199 97.85136241 13.3125 89.6875 C1.83216032 76.34548361 -0.16779595 62.45725174 -0.09765625 45.41015625 C-0.0962413 44.11049423 -0.09482635 42.81083221 -0.09336853 41.4717865 C-0.08957334 38.03756747 -0.07976908 34.60339158 -0.06866455 31.16918945 C-0.05838555 27.65641869 -0.05385708 24.14364088 -0.04882812 20.63085938 C-0.03814376 13.75388688 -0.02057167 6.87694996 0 0 Z " fill="#FDFDFD" transform="translate(1313,422)"/>
<path d="M0 0 C7.92 0 15.84 0 24 0 C24 42.57 24 85.14 24 129 C16.08 129 8.16 129 0 129 C0 86.43 0 43.86 0 0 Z " fill="#FDFDFD" transform="translate(1270,393)"/>
<path d="M0 0 C6.53830059 3.94975838 12.77230527 10.18797531 15.03125 17.6484375 C16.78917238 28.09455317 16.15844907 37.96765789 10.4375 47.0625 C4.50072093 54.15907536 -1.804246 57.53415846 -10.92578125 58.37109375 C-21.70218137 58.75307141 -28.9138755 56.384884 -36.8359375 49.0625 C-43.13089149 41.7706076 -43.93172433 32.84889773 -43.8359375 23.60546875 C-43.18370211 15.15436158 -38.80910109 8.63117539 -32.5625 3.0625 C-23.75117005 -3.76131191 -10.11671389 -4.48763043 0 0 Z " fill="#202A31" transform="translate(1214.5625,443.9375)"/>
<path d="M0 0 C6.95782685 4.23622791 11.9878487 9.21741063 14.7109375 17.0078125 C17.08121129 27.46490273 16.12765245 37.79225764 10.375 46.9375 C4.42990851 54.04401169 -1.81141312 57.26133942 -10.8828125 58.31640625 C-20.5612557 58.81628189 -28.05246995 56.55506018 -35.5625 50.33203125 C-41.53882379 44.04195046 -43.84701493 36.47164178 -44.125 27.9375 C-43.81313489 18.66202801 -41.13078479 11.42116997 -34.640625 4.69921875 C-25.32060905 -3.44676418 -11.34533628 -5.22163031 0 0 Z " fill="#202A31" transform="translate(1632.625,444.0625)"/>
<path d="M0 0 C8.25 0 16.5 0 25 0 C25 33 25 66 25 100 C16.75 100 8.5 100 0 100 C0 67 0 34 0 0 Z " fill="#F7F8F8" transform="translate(1525,422)"/>
<path d="M0 0 C10.23 0 20.46 0 31 0 C29.99982302 7.00123884 29.07044959 10.20868219 23.9375 14.875 C19.3098552 16.6472895 14.8864149 16.63954548 10 16 C5.13281171 13.69914735 2.47749955 10.76442222 0 6 C0 4.02 0 2.04 0 0 Z " fill="#F5F6F6" transform="translate(1522,393)"/>
</svg>
