<?xml version="1.0" encoding="UTF-8"?>
<svg version="1.1" xmlns="http://www.w3.org/2000/svg" width="1880" height="546">
  <path d="M0 0 C1.09920273 0.00222061 2.19840546 0.00444122 3.33091736 0.00672913 C4.57212845 0.00680466 5.81333954 0.00688019 7.09216309 0.00695801 C8.45682311 0.01206541 9.82148274 0.01728142 11.18614197 0.02259827 C12.57476755 0.02446251 13.96339379 0.02588638 15.35202026 0.02688599 C19.01319686 0.03071065 22.67433402 0.04054048 26.335495 0.05158997 C30.06890835 0.06180519 33.80232805 0.06638384 37.53575134 0.07142639 C44.86584748 0.08216281 52.19591108 0.0992386 59.52598572 0.12025452 C60.89389293 2.85606893 60.65697262 5.02910453 60.66401672 8.09280396 C60.66947006 9.36676529 60.6749234 10.64072662 60.68054199 11.95329285 C60.68166192 13.3736114 60.68271242 14.79393001 60.68370056 16.21424866 C60.68836815 17.70418447 60.69351162 19.19411886 60.69909668 20.68405151 C60.71039263 23.90012542 60.71882014 27.11618998 60.72521591 30.3322773 C60.73590481 35.43249063 60.75615779 40.53263779 60.77833557 45.6328125 C60.84021126 60.13909326 60.89408255 74.64537209 60.92735291 89.15174866 C60.94579645 97.15823418 60.97486314 105.16461056 61.01535761 113.17101568 C61.03628596 117.40197189 61.05186432 121.6327913 61.05416489 125.86380196 C61.05633921 129.85872086 61.07248612 133.85335627 61.09855461 137.8481884 C61.10564781 139.30039778 61.10789829 140.75264189 61.10445213 142.2048645 C61.07023738 159.39202898 63.15416605 174.90386117 73.25645447 189.17494202 C74.52598572 191.12025452 74.52598572 191.12025452 75.52598572 194.12025452 C77.25154396 195.17785162 77.25154396 195.17785162 79.52598572 196.12025452 C80.54950134 196.66681702 81.57301697 197.21337952 82.62754822 197.77650452 C97.32933535 205.46967916 113.23115578 208.03720757 129.52598572 203.12025452 C139.75485545 199.18093784 149.41881532 193.1432423 154.40098572 183.05775452 C160.58719249 167.41674236 161.66196225 151.76719315 161.73130798 135.10194397 C161.74090895 133.62250509 161.75092025 132.14306883 161.76130676 130.66363525 C161.78812185 126.68095948 161.80925662 122.69827213 161.82930875 118.71555734 C161.85131428 114.54088042 161.87863107 110.36623819 161.90536499 106.19158936 C161.95509637 98.30129724 162.00010697 90.41098566 162.04338735 82.52065581 C162.09292785 73.53143154 162.14778313 64.54224209 162.20306695 55.55305159 C162.31658645 37.07548359 162.4227884 18.59788325 162.52598572 0.12025452 C183.31598572 0.12025452 204.10598572 0.12025452 225.52598572 0.12025452 C226.88400754 2.83629817 226.65692009 4.9681555 226.66401672 8.01014709 C226.66947006 9.26583496 226.6749234 10.52152283 226.68054199 11.81526184 C226.68166192 13.2151031 226.68271242 14.61494441 226.68370056 16.01478577 C226.68836824 17.4833949 226.69351172 18.95200259 226.69909668 20.42060852 C226.71039287 23.59084437 226.71882033 26.76107073 226.72521591 29.93132019 C226.73590727 34.96039816 226.75616146 39.98940906 226.77833557 45.01844788 C226.84020118 59.32253395 226.89406254 73.62661825 226.92735291 87.93080139 C226.94580731 95.82559591 226.97488811 103.72027997 227.01535761 111.6149931 C227.03627007 115.78617772 227.05186198 119.95722398 227.05416489 124.12846375 C226.0836208 160.79924487 226.0836208 160.79924487 242.49082947 192.21791077 C252.69163669 202.08668448 266.03775585 205.54367483 279.87608337 205.48597717 C293.00998245 205.17657691 306.5657894 200.62843918 315.83848572 191.05775452 C327.5023332 176.71695843 328.98391681 158.76115674 328.94248962 140.99940491 C328.94989417 139.4617345 328.9586066 137.92406994 328.96850586 136.38641357 C328.99153901 132.26755897 328.99696089 128.14885566 328.99916506 124.02994466 C329.004878 119.70358818 329.02817932 115.37732667 329.04975891 111.05102539 C329.08806802 102.88229889 329.11242752 94.71360009 329.13088357 86.5448069 C329.16448869 71.87406363 329.22196561 57.20340235 329.28487527 42.53275865 C329.30638208 37.386507 329.321641 32.24028445 329.33171487 27.09399807 C329.33870758 23.9090846 329.34958189 20.7241923 329.36135674 17.53929329 C329.36593155 16.05776401 329.36876611 14.57622823 329.36977959 13.09469223 C329.37134057 11.08152174 329.37944999 9.06835943 329.38795471 7.0552063 C329.39051081 5.92651155 329.3930669 4.79781679 329.39570045 3.63491917 C329.52598572 1.12025452 329.52598572 1.12025452 330.52598572 0.12025452 C332.4590507 0.02629395 334.3955741 0.00281934 336.33091736 0.00672913 C337.57212845 0.00680466 338.81333954 0.00688019 340.09216309 0.00695801 C341.45682311 0.01206541 342.82148274 0.01728142 344.18614197 0.02259827 C345.57476755 0.02446251 346.96339379 0.02588638 348.35202026 0.02688599 C352.01319686 0.03071065 355.67433402 0.04054048 359.335495 0.05158997 C363.06890835 0.06180519 366.80232805 0.06638384 370.53575134 0.07142639 C377.86584748 0.08216281 385.19591108 0.0992386 392.52598572 0.12025452 C393.41144193 3.92222598 393.65368969 7.4439486 393.65969849 11.34399414 C393.66396347 12.59802536 393.66822845 13.85205658 393.67262268 15.14408875 C393.67227317 16.52668765 393.67181164 17.90928654 393.67124939 19.29188538 C393.67424332 20.75444626 393.67764639 22.21700636 393.681427 23.67956543 C393.69025881 27.65169845 393.69260509 31.62380991 393.69324279 35.5959518 C393.69395507 38.08718955 393.69609301 40.57842188 393.69874001 43.06965828 C393.70799875 51.78989634 393.71207523 60.51011913 393.71128845 69.23036194 C393.7106912 77.30697811 393.72117191 85.38352673 393.73703212 93.46012586 C393.75021592 100.42697041 393.75546768 107.39379323 393.75483304 114.36065012 C393.75458072 118.50620397 393.75728072 122.65169808 393.76801109 126.7972393 C393.86598993 167.59704041 392.29181611 207.03795027 362.27598572 237.93275452 C350.45459222 249.60557217 335.79452146 257.10802988 319.96348572 261.87025452 C319.30372742 262.06909241 318.64396912 262.2679303 317.96421814 262.47279358 C306.90156177 265.61469038 295.99753174 266.51090271 284.52598572 266.49525452 C283.510849 266.49443878 283.510849 266.49443878 282.47520447 266.49360657 C265.00893466 266.42936211 249.38805451 263.53749988 233.52598572 256.12025452 C232.56563416 255.6806842 231.60528259 255.24111389 230.61582947 254.78822327 C217.93741417 248.45813678 203.54272915 236.58589761 196.52598572 224.12025452 C196.52598572 222.80025452 196.52598572 221.48025452 196.52598572 220.12025452 C195.53598572 220.12025452 194.54598572 220.12025452 193.52598572 220.12025452 C193.43317322 220.84728577 193.34036072 221.57431702 193.24473572 222.32337952 C191.91002858 227.51713119 187.99670918 231.15710362 184.52598572 235.12025452 C183.86469666 235.87822327 183.20340759 236.63619202 182.52207947 237.41712952 C165.4321484 255.70692292 139.80796541 265.11648027 115.11973572 266.22865295 C83.79110609 266.98460486 53.54456519 261.60124422 29.96348572 239.45619202 C29.15911072 238.68533264 28.35473572 237.91447327 27.52598572 237.12025452 C26.68036072 236.34939514 25.83473572 235.57853577 24.96348572 234.78431702 C6.50779835 217.3977091 -0.75751157 192.27979759 -2.60023499 167.65174866 C-2.68339871 166.54314263 -2.76656244 165.43453661 -2.85224628 164.29233646 C-3.84881642 149.48371364 -3.74825569 134.65805063 -3.70973372 119.82372165 C-3.70078637 115.63627736 -3.7027136 111.44883496 -3.70309448 107.26138306 C-3.70216744 100.26502063 -3.69360147 93.26870245 -3.67982483 86.27235413 C-3.66395495 78.18297022 -3.65883249 70.09363403 -3.65956038 62.00423568 C-3.66023387 53.34920728 -3.65332229 44.6941972 -3.64411378 36.03917432 C-3.64198242 33.55313819 -3.64127271 31.067105 -3.64087486 28.58106804 C-3.63987491 24.69761201 -3.63380718 20.81419641 -3.62370872 16.93075371 C-3.62077731 15.50404101 -3.61955964 14.07732366 -3.62013626 12.65060806 C-3.62062348 10.71242088 -3.61437865 8.7742354 -3.60772705 6.83605957 C-3.60605121 5.74985038 -3.60437536 4.66364119 -3.60264874 3.54451656 C-3.42763557 0.24619518 -3.30325672 0.16056154 0 0 Z " fill="#FEFEFE" transform="translate(631.4740142822266,104.87974548339844)"/>
  <path d="M0 0 C1.9054943 1.78174911 3.79639716 3.57789935 5.6875 5.375 C6.32171875 5.94476563 6.9559375 6.51453125 7.609375 7.1015625 C30.01436232 27.90619359 42.08005179 61.14619839 43.6015625 91.10546875 C43.76205544 97.4645921 43.78864693 103.82668096 43.8125 110.1875 C43.81733398 111.45980469 43.82216797 112.73210937 43.82714844 114.04296875 C43.82489258 115.23148438 43.82263672 116.42 43.8203125 117.64453125 C43.81918457 118.72323486 43.81805664 119.80193848 43.81689453 120.91333008 C43.6875 123.375 43.6875 123.375 42.6875 124.375 C39.96896243 124.47285825 37.27583853 124.50493566 34.55686951 124.49525452 C33.26314355 124.49653615 33.26314355 124.49653615 31.94328171 124.49784368 C29.03044519 124.49950114 26.11766527 124.4939728 23.20483398 124.48852539 C21.1258952 124.48824355 19.04695631 124.48840119 16.96801758 124.4889679 C11.30502561 124.48925599 5.64205463 124.48335731 -0.02093244 124.47639394 C-5.93199893 124.47016241 -11.84306586 124.46955676 -17.75413513 124.46836853 C-28.95617695 124.46525462 -40.15820906 124.45704043 -51.3602466 124.44701904 C-64.10972363 124.43585975 -76.85920111 124.43034792 -89.6086818 124.42532361 C-115.84329326 124.41485786 -142.07789609 124.39725727 -168.3125 124.375 C-167.04462568 127.42756923 -165.77087619 130.47765368 -164.49609375 133.52734375 C-164.13914429 134.38694702 -163.78219482 135.24655029 -163.41442871 136.13220215 C-156.35389179 152.99252156 -145.54899388 166.56986444 -128.5 174.1875 C-126.45179374 174.95590184 -124.38862094 175.68557116 -122.3125 176.375 C-121.35988281 176.6946875 -120.40726563 177.014375 -119.42578125 177.34375 C-96.89641982 183.44957443 -70.57553906 180.72349504 -50.19970703 169.52490234 C-45.18529982 166.46955203 -40.6627747 162.42972845 -37.08032227 157.77349854 C-34.47203838 155.71012301 -32.4379689 156.00784634 -29.14453125 156.01855469 C-27.87311279 156.01555359 -26.60169434 156.01255249 -25.29174805 156.00946045 C-23.90282793 156.02146693 -22.51391187 156.03394996 -21.125 156.046875 C-19.7015808 156.04993322 -18.27815862 156.05180886 -16.85473633 156.05255127 C-13.87211648 156.0571534 -10.88976677 156.07157496 -7.90722656 156.09375 C-4.08382804 156.12203228 -0.26064224 156.13296172 3.56285095 156.1374321 C6.50193408 156.14158907 9.44097422 156.15140887 12.3800354 156.16330719 C13.78984229 156.16900491 15.19965329 156.17376526 16.60946655 156.17757416 C18.57951327 156.184449 20.54952878 156.19898075 22.51953125 156.21386719 C24.20139526 156.22410919 24.20139526 156.22410919 25.91723633 156.23455811 C28.6875 156.375 28.6875 156.375 31.6875 157.375 C31.12594617 162.41338572 29.46160252 166.52541503 27.1875 171 C26.83292725 171.7007666 26.47835449 172.4015332 26.11303711 173.12353516 C15.9979503 192.52239234 -0.23625771 207.50470856 -18.3125 219.375 C-19.08722656 219.90867187 -19.86195313 220.44234375 -20.66015625 220.9921875 C-50.20423268 240.27139081 -91.40173956 243.37054937 -125.3125 237.375 C-125.98619629 237.25672852 -126.65989258 237.13845703 -127.35400391 237.01660156 C-151.76282816 232.49495747 -173.41845995 221.19664173 -192.3125 205.375 C-193.08207031 204.75882813 -193.85164063 204.14265625 -194.64453125 203.5078125 C-219.70439943 182.84701388 -231.34257063 149.92682096 -234.60253906 118.58666992 C-238.10978297 79.9598466 -231.14088204 44.49314101 -206.03442383 14.06567383 C-181.74525838 -14.67553913 -147.30976916 -32.02260277 -109.95092773 -35.17358398 C-69.52103107 -37.92819418 -30.18729323 -27.62066689 0 0 Z M-153.0234375 45.703125 C-159.9300632 53.76478367 -166.3125 63.52058233 -166.3125 74.375 C-119.4525 74.375 -72.5925 74.375 -24.3125 74.375 C-24.83547242 67.81189124 -24.83547242 67.81189124 -27.140625 62.55078125 C-27.5212207 61.92107422 -27.90181641 61.29136719 -28.29394531 60.64257812 C-28.71256836 59.99740234 -29.13119141 59.35222656 -29.5625 58.6875 C-30.22523926 57.65592773 -30.22523926 57.65592773 -30.90136719 56.60351562 C-41.24650097 41.09655384 -55.26712279 30.52308058 -73.3125 25.375 C-74.08851563 25.15070313 -74.86453125 24.92640625 -75.6640625 24.6953125 C-102.87759781 18.38868368 -133.60045397 25.35523749 -153.0234375 45.703125 Z " fill="#FCFCFC" transform="translate(1289.3125,131.625)"/>
  <path d="M0 0 C1.78494873 0.01921509 1.78494873 0.01921509 3.60595703 0.03881836 C11.94722707 0.23190862 18.94493985 0.89622508 26.5625 4.5 C27.61695313 4.95117188 28.67140625 5.40234375 29.7578125 5.8671875 C44.59503115 12.91749707 56.14806412 26.07288679 61.9375 41.375 C67.43504064 57.38957491 65.70670713 76.62064317 58.4375 91.75 C53.33911877 101.32553113 44.50793087 112.52728457 34.5625 117.5 C41.36492049 129.76867873 48.20319313 142.00516097 55.375 154.0625 C70.08469771 178.85290771 80.50219476 196.62521141 73.08203125 226.0625 C68.4289079 243.30555209 58.60435189 258.26595119 49.5625 273.5 C48.57636719 275.16313232 48.57636719 275.16313232 47.5703125 276.85986328 C44.9224876 281.32283494 42.27353837 285.78512704 39.61987305 290.24462891 C34.11678264 299.51137695 28.75697682 308.85450279 23.42651367 318.22119141 C17.46030154 328.70251052 11.39242308 339.122233 5.29785156 349.52929688 C3.50165261 352.60416307 1.71462049 355.68420674 -0.0703125 358.765625 C-5.34460001 367.86288601 -10.62786348 376.94825967 -16.1875 385.875 C-16.59387695 386.52919922 -17.00025391 387.18339844 -17.41894531 387.85742188 C-21.44730126 394.25396284 -21.44730126 394.25396284 -24.35546875 394.9765625 C-27.75494886 395.19890371 -30.41796407 395.29461736 -33.18603516 393.13720703 C-38.2804496 387.16449878 -41.93896691 380.65893545 -45.625 373.75 C-46.92637264 371.34051118 -48.23524137 368.93516646 -49.546875 366.53125 C-49.871754 365.93439392 -50.196633 365.33753784 -50.53135681 364.72259521 C-54.06567943 358.27426573 -57.92251945 352.01926154 -61.93237305 345.85644531 C-64.8153916 341.25361743 -66.51346253 338.06719939 -65.4375 332.5 C-63.70285726 328.87227839 -61.56440755 325.55535203 -59.375 322.1875 C-58.07790125 320.12677729 -56.78373423 318.06420694 -55.4921875 316 C-54.82026367 314.93136719 -54.14833984 313.86273438 -53.45605469 312.76171875 C-50.18309784 307.47305118 -47.0895062 302.08475641 -44 296.6875 C-43.37931641 295.60637939 -42.75863281 294.52525879 -42.11914062 293.41137695 C-40.85618181 291.21048549 -39.59413912 289.00906806 -38.33300781 286.80712891 C-35.19030991 281.32400349 -32.03283096 275.84941968 -28.875 270.375 C-28.25737793 269.30338623 -27.63975586 268.23177246 -27.00341797 267.12768555 C-23.32845553 260.7569479 -19.62986409 254.40062283 -15.91308594 248.05419922 C-11.09183427 239.81910113 -6.29340233 231.57293812 -1.625 223.25 C-1.21016357 222.51716797 -0.79532715 221.78433594 -0.36791992 221.02929688 C3.00284533 214.96929908 4.73511163 209.50072442 3.5625 202.5 C1.74084972 198.0840374 -0.63580703 194.0455086 -3.0625 189.9375 C-3.74522426 188.75070542 -4.42627029 187.56294396 -5.10571289 186.37426758 C-6.85235064 183.32969293 -8.6216984 180.29905063 -10.39886475 177.2722168 C-12.03274415 174.48433866 -13.65014628 171.68694003 -15.26953125 168.890625 C-17.61176792 164.85325797 -19.96968782 160.82571862 -22.33984375 156.8046875 C-24.23354281 153.58373645 -26.08925937 150.35019766 -27.87890625 147.0703125 C-28.23476807 146.42296143 -28.59062988 145.77561035 -28.95727539 145.10864258 C-29.84601129 143.48014196 -30.72070218 141.84399591 -31.59375 140.20703125 C-34.87643495 135.38732644 -38.90092228 132.25926551 -44.4375 130.5 C-47.90335683 130.17780547 -47.90335683 130.17780547 -51.73120117 130.19360352 C-52.44738617 130.18528 -53.16357117 130.17695648 -53.90145874 130.16838074 C-56.2611847 130.1443549 -58.62063357 130.13551627 -60.98046875 130.12890625 C-62.6308856 130.11993172 -64.28130166 130.11080973 -65.93171692 130.10154724 C-69.3907773 130.08507302 -72.8497411 130.07736045 -76.30883789 130.07446289 C-80.71924883 130.06909176 -85.12873836 130.03145838 -89.53888988 129.98571873 C-92.94921593 129.95581835 -96.359324 129.94873648 -99.76976967 129.94773674 C-101.39433305 129.94355733 -103.01889846 129.93121553 -104.64333153 129.91021919 C-113.09249698 129.80973501 -120.20771725 129.86300593 -127.65962219 134.42588806 C-129.4375 135.5 -129.4375 135.5 -131.4375 135.5 C-131.69942139 136.2027002 -131.96134277 136.90540039 -132.23120117 137.62939453 C-134.28696358 142.52145168 -137.06392813 147.01625389 -139.72241211 151.60107422 C-140.74133075 153.36003426 -141.75283273 155.1231061 -142.76367188 156.88671875 C-143.41529297 158.01464844 -144.06691406 159.14257812 -144.73828125 160.3046875 C-145.32778564 161.32546387 -145.91729004 162.34624023 -146.5246582 163.39794922 C-147.155896 164.42162598 -147.78713379 165.44530273 -148.4375 166.5 C-148.69994003 167.13282898 -148.96238007 167.76565796 -149.23277283 168.41766357 C-150.40375003 170.761439 -151.29243985 171.96607419 -153.4375 173.5 C-158.62543108 174.51531399 -163.7704008 174.33842809 -169.02734375 174.21875 C-170.57522398 174.20822042 -172.12312696 174.20065671 -173.67103577 174.19592285 C-177.74162033 174.17490361 -181.81047636 174.11102452 -185.88043213 174.03894043 C-189.19461338 173.98720576 -192.50867132 173.96513162 -195.82317257 173.94481659 C-202.6856858 173.9024104 -209.54822152 173.84029291 -216.40991211 173.72460938 C-218.23261879 173.69627014 -218.23261879 173.69627014 -220.09214783 173.6673584 C-223.28203637 173.5077774 -226.30240944 173.09495042 -229.4375 172.5 C-228.82703406 167.97739321 -227.01725512 164.33927623 -224.875 160.375 C-224.48715332 159.64982178 -224.09930664 158.92464355 -223.69970703 158.17749023 C-219.27439387 150.02140852 -214.50893031 142.06240824 -209.74169922 134.10302734 C-206.22503436 128.22755629 -202.75166135 122.33501799 -199.38671875 116.37109375 C-199.05798767 115.79094009 -198.72925659 115.21078644 -198.39056396 114.61305237 C-196.83166489 111.86176813 -195.28188024 109.10625884 -193.74951172 106.34008789 C-182.63934385 86.71929726 -166.33354528 71.04356276 -144.59228516 64.08178711 C-132.44952558 60.80326954 -120.07714181 61.22510724 -107.60107422 61.29418945 C-104.20923253 61.31238343 -100.81766661 61.31469888 -97.42578125 61.31445312 C-85.39571315 61.33458023 -73.4350161 61.59529317 -61.4375 62.5 C-61.4996167 61.31869507 -61.4996167 61.31869507 -61.56298828 60.11352539 C-62.22072257 45.31708318 -56.66436609 33.22600184 -47 22.3125 C-45.48689424 20.70104237 -43.96654348 19.09634293 -42.4375 17.5 C-41.8496875 16.84902344 -41.261875 16.19804687 -40.65625 15.52734375 C-29.80933007 3.88737071 -15.53996618 -0.25462705 0 0 Z " fill="#FE3A81" transform="translate(393.4375,-0.5)"/>
  <path d="M0 0 C0.74313611 -0.00226556 1.48627223 -0.00453111 2.25192761 -0.00686532 C4.71909508 -0.01314896 7.18620681 -0.01237964 9.65338135 -0.0115509 C11.43130056 -0.01454573 13.20921912 -0.017949 14.98713684 -0.02172852 C19.79876519 -0.03053512 24.61037574 -0.03290509 29.42201138 -0.0335443 C32.42855196 -0.03425616 35.43508804 -0.03639295 38.4416275 -0.03904152 C48.93067207 -0.04828054 59.41970394 -0.0523778 69.90875244 -0.05158997 C79.68819172 -0.05098803 89.46757605 -0.0615662 99.24700141 -0.07733363 C107.64715833 -0.0903951 116.04729723 -0.09577452 124.44746423 -0.09513456 C129.46318259 -0.09487936 134.47885199 -0.09774303 139.49456024 -0.10831261 C144.2059629 -0.11797131 148.91726948 -0.11808815 153.62867546 -0.11079597 C155.35889005 -0.10974768 157.08911056 -0.11212746 158.81931496 -0.11815643 C161.17791578 -0.12584419 163.53618206 -0.12125324 165.89477539 -0.11352539 C166.58192871 -0.11866895 167.26908203 -0.12381252 167.97705817 -0.12911195 C171.55512238 -0.10313857 174.14607141 0.190331 177.19342041 2.13371277 C177.49481721 7.92932215 177.11635202 11.2869865 174.19342041 16.44621277 C173.85455811 17.05231384 173.5156958 17.65841492 173.16656494 18.28288269 C171.86659536 20.58136767 170.53231954 22.85767045 169.19342041 25.13371277 C168.27641357 26.69992371 168.27641357 26.69992371 167.34088135 28.29777527 C160.70256273 39.62263977 153.95212077 50.88038973 147.19342041 62.13371277 C146.66345459 63.03065857 146.13348877 63.92760437 145.58746338 64.85173035 C144.19342041 67.13371277 144.19342041 67.13371277 143.19342041 68.13371277 C141.4146167 68.23573799 139.63174289 68.26725117 137.85002136 68.27174377 C136.69064056 68.27719711 135.53125977 68.28265045 134.33674622 68.28826904 C132.41136269 68.28983253 132.41136269 68.28983253 130.44708252 68.29142761 C129.09047276 68.29609365 127.73386458 68.30123687 126.3772583 68.30682373 C123.44816674 68.31812552 120.51908549 68.32654986 117.58997917 68.33294296 C112.95438203 68.34360898 108.31885826 68.36385243 103.68330383 68.38606262 C90.49864075 68.44802621 77.3139807 68.50193262 64.12921143 68.53507996 C56.8530835 68.5534532 49.57707724 68.58242792 42.3010388 68.62308466 C38.45097127 68.64411913 34.60105689 68.65960676 30.75092888 68.66189194 C27.12374388 68.66404707 23.49687708 68.68000395 19.86978912 68.70628166 C17.91281935 68.71684557 15.95578735 68.71273375 13.99879456 68.70809937 C6.14802819 68.78195824 -0.11769318 69.20748469 -6.47064209 74.24699402 C-9.53729338 78.0367186 -11.83691568 82.05713281 -14.18157959 86.32121277 C-15.23672172 88.20450032 -16.29275376 90.08728948 -17.34954834 91.96965027 C-17.90690674 92.96706238 -18.46426514 93.96447449 -19.03851318 94.99211121 C-22.14119415 100.50513229 -25.32310283 105.97229421 -28.49407959 111.44621277 C-30.93414436 115.67390368 -33.37084719 119.90352463 -35.80657959 124.13371277 C-36.30979736 125.00656921 -36.81301514 125.87942566 -37.33148193 126.7787323 C-38.62033588 129.01898002 -39.90246394 131.26289465 -41.18157959 133.50871277 C-41.54469238 134.1381781 -41.90780518 134.76764343 -42.28192139 135.41618347 C-45.34598441 140.82857719 -46.43124136 144.86816589 -45.80657959 151.13371277 C-44.37778362 154.66131364 -42.51801493 157.90275137 -40.61907959 161.19621277 C-40.08097656 162.15503357 -39.54287354 163.11385437 -38.98846436 164.10173035 C-34.11553648 172.73302969 -29.07241389 181.26735201 -23.98626709 189.77433777 C-21.86735094 193.32523321 -19.79078924 196.89565499 -17.75189209 200.49308777 C-17.26535156 201.34878357 -16.77881104 202.20447937 -16.27752686 203.08610535 C-15.37338235 204.68140557 -14.47492176 206.27994822 -13.5836792 207.88249207 C-8.07559877 217.65252914 -8.07559877 217.65252914 0.99273682 223.76554871 C6.24713702 224.64458526 11.62103178 223.79662442 16.88092041 223.25871277 C39.0465047 221.09795415 39.0465047 221.09795415 46.63092041 224.82121277 C51.69031891 229.38701141 54.76074717 233.7826871 57.50592041 240.00871277 C58.11368617 241.35189 58.7231155 242.69431551 59.33404541 244.03605652 C59.64277588 244.71909851 59.95150635 245.4021405 60.26959229 246.10588074 C65.63181072 257.87612025 71.91235714 269.00407007 78.62139893 280.061203 C79.21235352 281.04934998 79.80330811 282.03749695 80.41217041 283.05558777 C80.94777588 283.93827332 81.48338135 284.82095886 82.03521729 285.73039246 C83.19342041 288.13371277 83.19342041 288.13371277 83.19342041 292.13371277 C78.89569563 293.18445786 74.71846067 293.28171869 70.32061768 293.27897644 C69.15356544 293.28401436 69.15356544 293.28401436 67.9629364 293.28915405 C65.39521679 293.29863661 62.82756269 293.30060645 60.25982666 293.30168152 C58.46205113 293.30489822 56.66427585 293.3082626 54.86650085 293.31176758 C51.09468989 293.31775373 47.32290181 293.31960823 43.55108643 293.3190155 C38.75353459 293.31891443 33.95613258 293.33251215 29.15861607 293.34978771 C25.44104867 293.36099708 21.72351632 293.36293192 18.00593376 293.36240578 C16.23957749 293.36357457 14.47321998 293.36793339 12.70688057 293.37573814 C-13.56509401 293.48086945 -35.80135654 288.29082666 -55.26849365 269.67033386 C-63.68261996 261.26422101 -68.85626834 250.85790694 -74.38861084 240.46965027 C-78.30165765 233.15073823 -82.42533859 225.95581597 -86.55657959 218.75871277 C-87.27997126 217.49699574 -88.00336 216.23527703 -88.72674561 214.97355652 C-90.41780387 212.02566366 -92.11139783 209.07923676 -93.80657959 206.13371277 C-98.30120202 206.72651524 -102.09258599 207.5449428 -106.30657959 209.19621277 C-120.60994695 213.73749047 -138.78498933 212.93595962 -152.27923584 206.46965027 C-168.69286741 197.90209533 -180.6481374 184.73637053 -186.84564209 167.19230652 C-191.47629556 150.94174223 -189.18742883 132.40873631 -181.42376709 117.47355652 C-172.33779449 101.70392345 -158.3987259 91.94564503 -141.40814209 85.93058777 C-137.00173148 84.95563358 -132.8699401 84.75130574 -128.36907959 84.75871277 C-127.49815674 84.7581488 -126.62723389 84.75758484 -125.72991943 84.75700378 C-118.51995255 84.87732331 -112.09109424 86.15106184 -105.18939209 88.16105652 C-102.05758005 89.06154289 -99.02050263 89.62751004 -95.80657959 90.13371277 C-95.4307373 89.44672302 -95.05489502 88.75973328 -94.66766357 88.05192566 C-87.58607548 75.13592258 -80.41989307 62.28279841 -72.86907959 49.63371277 C-72.27989746 48.63992615 -71.69071533 47.64613953 -71.0836792 46.62223816 C-58.3903599 25.52837875 -43.31106454 8.09478198 -18.57220459 1.67668152 C-12.37560819 0.4601181 -6.30604172 -0.01439857 0 0 Z " fill="#FDC300" transform="translate(188.80657958984375,200.8662872314453)"/>
  <path d="M0 0 C2.39868164 0.18334961 2.39868164 0.18334961 5 1 C6.44702148 2.75219727 6.44702148 2.75219727 7.62109375 5.06640625 C8.07419922 5.93209229 8.52730469 6.79777832 8.99414062 7.68969727 C9.70860352 9.11173462 9.70860352 9.11173462 10.4375 10.5625 C11.49533525 12.5850956 12.5566612 14.60586857 13.62109375 16.625 C14.17265137 17.676875 14.72420898 18.72875 15.29248047 19.8125 C18.05854618 24.9760336 21.02536833 30.01713027 24 35.0625 C25.17861906 37.0727797 26.35700544 39.08319584 27.53515625 41.09375 C28.11152832 42.07601562 28.68790039 43.05828125 29.28173828 44.0703125 C58.60379193 94.06528888 58.60379193 94.06528888 53.1875 125.25 C47.70759389 145.35998104 35.16871648 164.02385128 24.17578125 181.5 C23.75184082 182.18255859 23.32790039 182.86511719 22.89111328 183.56835938 C22.11947751 184.80673305 21.33624698 186.0380008 20.53857422 187.25976562 C18.23106325 190.95968335 17.17136045 193.66007486 18 198 C20.24743206 200.14835964 20.24743206 200.14835964 23 202 C36.22872036 217.23307193 38.9662804 233.83076555 38.19970703 253.29980469 C37.78381693 258.92296426 36.25626257 263.83002087 34 269 C33.67257812 269.85078125 33.34515625 270.7015625 33.0078125 271.578125 C29.65442171 279.36190801 23.89535164 285.08831775 18 291 C17.25492187 291.76828125 16.50984375 292.5365625 15.7421875 293.328125 C3.03512054 305.61318604 -12.3492264 307.45986402 -29.18212891 307.43164062 C-46.04821465 307.13670414 -58.37656336 300.33522531 -70.75 289 C-78.72350014 280.73802301 -85.70108716 268.22010315 -86.125 256.5625 C-86.08375 255.716875 -86.0425 254.87125 -86 254 C-87.36112915 254.24230347 -87.36112915 254.24230347 -88.74975586 254.48950195 C-94.14803048 255.25513623 -99.5617115 255.16246879 -105.00390625 255.16796875 C-106.15938461 255.17129715 -107.31486298 255.17462555 -108.50535583 255.17805481 C-110.94700728 255.1831059 -113.3886656 255.1854637 -115.83032227 255.18530273 C-119.52567247 255.18747832 -123.22071859 255.20562373 -126.91601562 255.22460938 C-154.6521596 255.29279608 -177.26707342 252.04303935 -198 232 C-198.60199219 231.4946875 -199.20398438 230.989375 -199.82421875 230.46875 C-205.95667086 225.09392018 -209.53888761 217.67332527 -213.49121094 210.6640625 C-215.11492483 207.79707771 -216.76188452 204.94442285 -218.4140625 202.09375 C-225.35112375 190.12335518 -232.22247444 178.11605897 -239.07598877 166.0977478 C-243.67302277 158.03901168 -248.31284977 150.00668632 -253 142 C-258.68541776 132.28616399 -264.29833666 122.53219221 -269.86767578 112.75146484 C-270.53676872 111.57648878 -271.20587687 110.40152137 -271.875 109.2265625 C-272.20837372 108.64107635 -272.54174744 108.05559021 -272.88522339 107.45236206 C-275.03352305 103.68351103 -277.19594216 99.92309835 -279.36813354 96.16796875 C-280.85016074 93.60549902 -282.32827774 91.04078335 -283.80621338 88.47595215 C-284.51111183 87.25519088 -285.21789926 86.03551814 -285.92669678 84.8170166 C-286.91180558 83.1230648 -287.88964158 81.42488993 -288.8671875 79.7265625 C-289.70419189 78.28144287 -289.70419189 78.28144287 -290.55810547 76.80712891 C-292.80244522 72.43777259 -294.78410245 67.96598216 -294 63 C-291.7522146 60.20964571 -290.42269984 59.14089995 -287 58 C-285.33543867 57.85007004 -283.66600609 57.75168319 -281.99609375 57.68359375 C-280.9611377 57.64137695 -279.92618164 57.59916016 -278.85986328 57.55566406 C-267.20767294 57.15334846 -255.55675834 56.85305313 -243.8977356 56.76882935 C-242.38830669 56.75632391 -240.87891041 56.73884475 -239.36959839 56.71627808 C-237.23838277 56.6863763 -235.10796432 56.67650071 -232.9765625 56.671875 C-231.75018066 56.6625293 -230.52379883 56.65318359 -229.26025391 56.64355469 C-224.0932091 57.20847047 -221.74033602 59.09308837 -218.5 63.0625 C-216.65780984 65.79290802 -215.17441166 68.58937863 -213.74609375 71.5546875 C-210.94385427 77.2176111 -207.78357516 82.6298862 -204.5625 88.0625 C-199.60559351 96.48661832 -194.75009658 104.95760111 -190 113.5 C-184.87028282 122.71830026 -179.61889538 131.85526335 -174.26538086 140.9453125 C-171.18902543 146.18622254 -168.17905605 151.45424659 -165.25390625 156.78125 C-164.63580078 157.90402344 -164.01769531 159.02679688 -163.38085938 160.18359375 C-162.20549133 162.32728327 -161.03824014 164.47545215 -159.88085938 166.62890625 C-155.31032061 174.95793127 -150.99695386 182.16815041 -142 186 C-138.45315436 186.46336824 -138.45315436 186.46336824 -134.62451172 186.41992188 C-133.91139328 186.42839142 -133.19827484 186.43686096 -132.46354675 186.44558716 C-130.11874259 186.46887809 -127.77459836 186.46998073 -125.4296875 186.46875 C-123.78548933 186.47585998 -122.14129362 186.48356019 -120.49710083 186.49182129 C-117.05235912 186.50525063 -113.60784646 186.5068435 -110.16308594 186.50097656 C-105.77863372 186.49510349 -101.39529767 186.52557873 -97.01106071 186.56609344 C-93.61349716 186.59213308 -90.21619586 186.59483286 -86.8185463 186.59120178 C-85.20402362 186.5928801 -83.5894871 186.60239661 -81.97506332 186.62034607 C-72.30040414 186.71602286 -63.49437468 186.26701168 -55 181 C-52.76587396 178.57505389 -51.46163332 176.18908011 -50.125 173.1875 C-49.31659687 171.57086152 -48.50385369 169.95638829 -47.6875 168.34375 C-47.26210938 167.48136719 -46.83671875 166.61898437 -46.3984375 165.73046875 C-43.85347216 160.76138839 -40.96824954 155.98997325 -38.125 151.1875 C-36.93373062 149.15302559 -35.7436277 147.11786771 -34.5546875 145.08203125 C-33.96655273 144.0760791 -33.37841797 143.07012695 -32.77246094 142.03369141 C-29.92113903 137.15345365 -27.07651886 132.26965057 -24.25 127.375 C-23.49807373 126.08758911 -23.49807373 126.08758911 -22.73095703 124.77416992 C-18.52177096 117.45827342 -15.25308836 110.56095207 -17 102 C-19.97868727 94.42892113 -24.41676869 87.40015339 -28.82421875 80.59375 C-29.28135254 79.88492676 -29.73848633 79.17610352 -30.20947266 78.44580078 C-31.08913668 77.09947991 -31.98521393 75.763693 -32.89990234 74.44091797 C-35.73721496 70.15845844 -36.86413687 67.2689904 -36 62 C-34.54575284 58.48179514 -32.71225914 55.23231229 -30.8125 51.9375 C-30.27512207 50.98012939 -29.73774414 50.02275879 -29.18408203 49.03637695 C-23.78548034 39.47521443 -18.18582443 30.02921946 -12.55175781 20.60546875 C-9.66519457 15.75880372 -6.82313559 10.88581825 -3.98193359 6.01245117 C-1.10967197 1.10967197 -1.10967197 1.10967197 0 0 Z " fill="#8657F1" transform="translate(494,239)"/>
  <path d="M0 0 C20.79 0 41.58 0 63 0 C63 65.34 63 130.68 63 198 C42.87 198 22.74 198 2 198 C2 161.37 2 124.74 2 87 C1.34 87 0.68 87 0 87 C-0.34804687 88.26457031 -0.34804687 88.26457031 -0.703125 89.5546875 C-2.19448617 93.5166771 -4.31035931 96.7081181 -6.75 100.125 C-7.23315674 100.81456787 -7.71631348 101.50413574 -8.21411133 102.21459961 C-9.259583 103.70531259 -10.3082821 105.19376627 -11.35986328 106.68017578 C-13.0066453 109.00939917 -14.64348337 111.34529135 -16.27734375 113.68359375 C-18.60254408 117.01117488 -20.93093139 120.33648621 -23.26171875 123.66015625 C-27.1883352 129.26381926 -31.09506324 134.88121682 -35 140.5 C-40.03059416 147.73695272 -45.06936735 154.96801389 -50.125 162.1875 C-50.69549072 163.00234863 -51.26598145 163.81719727 -51.85375977 164.65673828 C-54.71794184 168.74633669 -57.58541524 172.8335868 -60.45703125 176.91796875 C-69.08536449 189.20680701 -77.53896892 201.59048775 -86 214 C-25.61 214.33 34.78 214.66 97 215 C97 233.48 97 251.96 97 271 C85.78 271 74.56 271 63 271 C63 294.43 63 317.86 63 342 C42.54 342 22.08 342 1 342 C1 318.57 1 295.14 1 271 C-50.15 271 -101.3 271 -154 271 C-154 230.13095071 -153.55638923 212.34696083 -131.70996094 183.28662109 C-128.90604983 179.5371306 -126.17361672 175.73658923 -123.4375 171.9375 C-122.89907471 171.19258301 -122.36064941 170.44766602 -121.8059082 169.68017578 C-117.66691831 163.94850008 -113.58592312 158.17742571 -109.51928711 152.39428711 C-105.34744926 146.47020892 -101.10686623 140.59759925 -96.85546875 134.73046875 C-93.20004412 129.67917792 -89.58642038 124.60047648 -86 119.5 C-81.33863251 112.87077288 -76.61055569 106.29271463 -71.85546875 99.73046875 C-68.20004412 94.67917792 -64.58642038 89.60047648 -61 84.5 C-56.33863251 77.87077288 -51.61055569 71.29271463 -46.85546875 64.73046875 C-42.69544701 58.98189455 -38.5961582 53.19275972 -34.51513672 47.38793945 C-30.4011402 41.54552573 -26.21633999 35.75639958 -22.01806641 29.97436523 C-17.11347674 23.20020425 -12.32755667 16.34511315 -7.58056641 9.4597168 C-7.02546387 8.65961182 -6.47036133 7.85950684 -5.8984375 7.03515625 C-5.16633057 5.97373413 -5.16633057 5.97373413 -4.41943359 4.89086914 C-3 3 -3 3 0 0 Z " fill="#FEFEFE" transform="translate(1504,21)"/>
  <path d="M0 0 C1.8569751 -0.00472824 1.8569751 -0.00472824 3.75146484 -0.009552 C5.11295609 -0.00776222 6.47444701 -0.00571127 7.8359375 -0.00341797 C9.22216814 -0.00409106 10.60839867 -0.00506113 11.99462891 -0.00631714 C14.90333172 -0.00779387 17.81200387 -0.00564037 20.72070312 -0.00097656 C24.45690348 0.00472073 28.19303202 0.00144159 31.92922974 -0.00454903 C34.79273016 -0.00815532 37.65621343 -0.00701574 40.51971436 -0.00442123 C41.89768482 -0.00375215 43.27565682 -0.00457973 44.65362549 -0.00690079 C46.57637504 -0.00942839 48.49913002 -0.0048957 50.421875 0 C52.06615479 0.00119339 52.06615479 0.00119339 53.74365234 0.00241089 C56.2109375 0.12939453 56.2109375 0.12939453 57.2109375 1.12939453 C57.31522725 2.94533572 57.34892575 4.76535349 57.35569763 6.58427429 C57.36259613 7.76864075 57.36949463 8.9530072 57.37660217 10.17326355 C57.37921555 11.48482925 57.38182892 12.79639496 57.38452148 14.14770508 C57.39082384 15.53398854 57.39758928 16.92026996 57.40478516 18.30654907 C57.41948847 21.30110439 57.4312004 24.29565171 57.44073296 27.29022789 C57.45617801 32.03668755 57.4801335 36.78308032 57.50563049 41.52949524 C57.57683192 55.03028115 57.63634441 68.5311072 57.68774414 82.03198242 C57.71618226 89.48173702 57.75164654 96.93142687 57.79439789 104.38111335 C57.82098079 109.08636823 57.83900313 113.79154984 57.85043514 118.49686468 C57.85965813 121.44754761 57.87706566 124.39814308 57.89661407 127.34877396 C57.90747589 129.34037589 57.90883133 131.33202284 57.90974426 133.32365417 C58.06583112 152.93463376 61.50364754 174.61696025 75.42578125 189.57861328 C79.33858925 192.97770469 83.71217519 195.58496056 88.2109375 198.12939453 C88.90832031 198.53287109 89.60570312 198.93634766 90.32421875 199.35205078 C106.82439588 207.77835483 129.0532608 207.07731369 146.33935547 201.76660156 C159.05368524 197.43782505 169.76301796 187.82415056 176.2109375 176.12939453 C186.31752841 155.05810594 185.67893852 131.7975441 185.71704841 108.93197799 C185.72657757 105.09231273 185.75278955 101.25275754 185.77705383 97.41316223 C185.82032994 90.17840188 185.84911345 82.94366335 185.87237722 75.70881397 C185.90476153 65.90689186 185.96016869 56.10509967 186.01412296 46.30327702 C186.09825114 30.91202211 186.15216841 15.52081561 186.2109375 0.12939453 C207.0009375 0.12939453 227.7909375 0.12939453 249.2109375 0.12939453 C249.3016232 20.08931793 249.37514204 40.04907163 249.41818619 60.00914955 C249.43871348 69.27928731 249.46664321 78.54928692 249.51269531 87.81933594 C249.55286719 95.90966056 249.57844151 103.99988503 249.58729148 112.09030664 C249.59245551 116.36458722 249.60438093 120.63858154 249.63385773 124.91276932 C249.90386665 165.68861596 243.38523367 203.03275275 214.60546875 233.82861328 C186.46914115 260.86335546 147.81474154 266.87849726 110.35449219 266.21826172 C80.79234721 265.38255026 53.75317915 255.36200853 31.2109375 236.12939453 C30.38980469 235.46552734 29.56867188 234.80166016 28.72265625 234.11767578 C7.27447887 216.07185313 -3.68557064 186.14506504 -6.58584213 158.91670227 C-7.02308087 152.91967089 -6.92746197 146.90473641 -6.91845703 140.89501953 C-6.91981406 139.36823993 -6.92159569 137.84146066 -6.92376709 136.31468201 C-6.92830241 132.19337018 -6.92656881 128.07208356 -6.923388 123.95077133 C-6.92084787 119.63376551 -6.9232062 115.31676177 -6.92477417 110.99975586 C-6.92658948 103.7605755 -6.92420469 96.52140537 -6.91943359 89.28222656 C-6.91397574 80.90406925 -6.9157672 72.52593621 -6.92126 64.14777946 C-6.92578975 56.95103688 -6.92644286 49.75430161 -6.92382133 42.55755806 C-6.9222599 38.26016974 -6.92206147 33.96279286 -6.92535782 29.66540527 C-6.92823507 25.63362036 -6.92626359 21.60186701 -6.92046356 17.57008553 C-6.91913588 16.08694575 -6.91953022 14.60380334 -6.92172623 13.1206646 C-6.92443695 11.10493944 -6.9204436 9.08920851 -6.91604614 7.07348633 C-6.91566912 5.94307419 -6.91529209 4.81266205 -6.91490364 3.647995 C-6.67937519 -1.06590109 -4.14168695 0.00300596 0 0 Z " fill="#FEFEFE" transform="translate(1630.7890625,104.87060546875)"/>
  <path d="M0 0 C10.21118803 8.07396263 18.74073769 20.33879225 20.30004883 33.5402832 C20.43761616 36.24309152 20.46776095 38.91890856 20.4375 41.625 C20.42920166 42.58704346 20.42090332 43.54908691 20.41235352 44.5402832 C20.10724368 57.54708276 17.11046087 68.58905644 9 79 C8.17435547 80.07507813 8.17435547 80.07507813 7.33203125 81.171875 C-3.00946004 92.95158693 -19.06844175 97.08218783 -34.09765625 98.23828125 C-50.47102343 98.67582552 -63.97850623 92.48222057 -75.7421875 81.3515625 C-87.26138712 69.11614321 -89.76560162 52.28815661 -89.2890625 36.1484375 C-89.01834983 31.09589257 -88.00290382 26.65022018 -86 22 C-85.74476562 21.33226562 -85.48953125 20.66453125 -85.2265625 19.9765625 C-82.49226425 13.62998032 -77.79249292 8.87441588 -73 4 C-72.42121094 3.40832031 -71.84242187 2.81664062 -71.24609375 2.20703125 C-52.36138562 -15.49453854 -20.46687931 -12.99095334 0 0 Z M-55 21 C-60.40648223 26.05157092 -63.52452409 31.34429833 -64.28125 38.75390625 C-64.56316315 47.76338062 -63.7146347 57.17520567 -57.9375 64.4375 C-51.53008835 70.96734627 -43.2960667 74.07262614 -34.25 74.25 C-25.05104956 74.14048869 -18.22222007 70.63307309 -11.3125 64.6875 C-4.12600858 56.33563159 -4.24561024 45.44119154 -5 35 C-6.85096622 26.85339072 -12.66010986 21.01003912 -19.37109375 16.35546875 C-31.27976252 10.2153379 -45.07690447 12.58567923 -55 21 Z " fill="#F9F9F9" transform="translate(1235,428)"/>
  <path d="M0 0 C10.4479717 8.79028769 17.8212831 20.01421421 20.75 33.4375 C21.92647879 50.20232282 19.44850287 66.36380985 8.70703125 79.88671875 C-1.60930047 90.85909701 -15.95315838 97.1959203 -30.96484375 98.12109375 C-46.86312461 98.60982933 -62.21567421 93.86819041 -74.0859375 83.109375 C-84.25432847 72.59034985 -88.89292937 59.72313737 -89.3125 45.3125 C-89.04723698 30.94148554 -85.77631638 16.94807523 -76 6 C-54.51075167 -11.43016809 -23.68286036 -17.05751612 0 0 Z M-55.546875 21.4609375 C-61.73405678 27.98504502 -64.20913173 35.07034408 -64.5 44 C-64.21462694 52.7609528 -61.79597826 59.9867715 -55.77734375 66.46484375 C-48.33247583 72.89524615 -40.97741706 74.38083614 -31.38671875 74.2734375 C-22.70718746 73.57266796 -15.70006186 69.516237 -10 63 C-4.22752868 54.04848651 -3.45048407 43.39227666 -5.61328125 33.07421875 C-8.46406347 24.99909556 -14.42116924 18.89061638 -22 15 C-25.04178807 14.2209306 -25.04178807 14.2209306 -28.1875 13.8125 C-29.23292969 13.65394531 -30.27835938 13.49539063 -31.35546875 13.33203125 C-40.08641782 12.23582642 -49.23230477 15.49717672 -55.546875 21.4609375 Z " fill="#F9F9F9" transform="translate(1653,428)"/>
  <path d="M0 0 C10.73823124 8.90862815 15.67271458 22.4435816 17 36 C17.44514491 45.29726911 17.300326 54.61222244 17.20599365 63.91656494 C17.17488471 67.31606404 17.1615146 70.71563291 17.14648438 74.11523438 C17.11368194 80.74366744 17.06368784 87.37179547 17 94 C12.68751391 94.02886537 8.37505238 94.04675255 4.0625 94.0625 C2.83080078 94.07087891 1.59910156 94.07925781 0.33007812 94.08789062 C-0.83974609 94.09111328 -2.00957031 94.09433594 -3.21484375 94.09765625 C-4.84087524 94.10551147 -4.84087524 94.10551147 -6.49975586 94.11352539 C-9 94 -9 94 -10 93 C-10.10239082 91.21202191 -10.13571094 89.42004734 -10.1418457 87.62915039 C-10.15239738 85.90584251 -10.15239738 85.90584251 -10.16316223 84.14772034 C-10.16732651 82.89369919 -10.17149078 81.63967804 -10.17578125 80.34765625 C-10.19304325 78.38456782 -10.21032933 76.42147928 -10.22898388 74.45840359 C-10.27451761 69.60796185 -10.31220759 64.75762564 -10.32592773 59.90698242 C-10.33410733 57.19311067 -10.3528083 54.47969376 -10.38285828 51.76597595 C-10.41083885 49.21170671 -10.42394289 46.65721791 -10.41999817 44.10279846 C-10.54295182 35.32548451 -11.87251263 28.19976876 -17.1875 21.0625 C-24.06196813 16.02122337 -31.64733262 15.1227228 -40 16 C-45.50240238 17.05304597 -49.28962573 19.3508344 -52.65361023 23.86026001 C-57.56440203 31.66469957 -57.46486329 40.73966719 -57.51171875 49.6640625 C-57.52966995 50.93728363 -57.54762115 52.21050476 -57.56611633 53.52230835 C-57.61082215 56.87268438 -57.643273 60.22270454 -57.66955566 63.57324219 C-57.69957791 67.00598964 -57.74587642 70.43851729 -57.79101562 73.87109375 C-57.87807505 80.58074343 -57.93838075 87.2898764 -58 94 C-66.91 94 -75.82 94 -85 94 C-85.04540222 85.84541173 -85.0820025 77.69092373 -85.10362434 69.53624249 C-85.11400803 65.74864141 -85.12806668 61.96113221 -85.15087891 58.17358398 C-85.1728025 54.51014633 -85.18460921 50.84679637 -85.18975449 47.18329811 C-85.19341557 45.79404129 -85.20056337 44.4047886 -85.21146011 43.01556969 C-85.33275532 26.89277097 -83.44299633 15.8017306 -72.25 3.6875 C-52.4491195 -15.00269281 -21.93865306 -13.72503539 0 0 Z " fill="#F9F9FA" transform="translate(1768,428)"/>
  <path d="M0 0 C4.7282857 3.74500748 7.49443311 8.37949122 10.16015625 13.7109375 C10.16015625 17.3409375 10.16015625 20.9709375 10.16015625 24.7109375 C1.91015625 24.7109375 -6.33984375 24.7109375 -14.83984375 24.7109375 C-15.33484375 21.2459375 -15.33484375 21.2459375 -15.83984375 17.7109375 C-22.84788805 15.59530148 -30.21882542 14.08084599 -37.3203125 16.5859375 C-39.54683863 17.78392678 -41.16492572 18.81551206 -42.83984375 20.7109375 C-43.50908137 24.42350203 -43.50908137 24.42350203 -42.83984375 27.7109375 C-37.89263495 30.84803475 -33.66855609 32.44811512 -27.83984375 33.2734375 C-26.33839799 33.51734637 -24.83709836 33.76215628 -23.3359375 34.0078125 C-21.1425382 34.352577 -18.94867875 34.69411917 -16.75439453 35.03320312 C-7.21183358 36.54885471 1.56893587 38.29179214 8.06640625 45.9609375 C12.62095777 52.49199251 13.37708015 57.66192812 13.47265625 65.4609375 C13.51616211 66.62109375 13.51616211 66.62109375 13.56054688 67.8046875 C13.65204652 76.19450102 10.08531661 82.65659711 4.45703125 88.75390625 C-3.92880275 95.8989791 -14.01085017 98.95176202 -24.83984375 99.7109375 C-25.62875 99.76894531 -26.41765625 99.82695313 -27.23046875 99.88671875 C-29.46322357 99.96301793 -31.6124237 99.88198511 -33.83984375 99.7109375 C-34.73960938 99.64261719 -35.639375 99.57429687 -36.56640625 99.50390625 C-47.74262688 98.16217 -58.67939873 93.26696866 -66.28515625 84.8125 C-71.14389752 78.24465377 -71.83984375 74.0781197 -71.83984375 65.7109375 C-63.25984375 65.7109375 -54.67984375 65.7109375 -45.83984375 65.7109375 C-43.83984375 69.7109375 -43.83984375 69.7109375 -43.83984375 72.7109375 C-34.68479019 76.26028134 -24.1051808 75.73635368 -14.83984375 72.7109375 C-14.17984375 68.7509375 -13.51984375 64.7909375 -12.83984375 60.7109375 C-14.34160156 60.44023437 -15.84335938 60.16953125 -17.390625 59.890625 C-23.94871039 58.69557277 -30.50326553 57.48473669 -37.04760742 56.21630859 C-38.37195551 55.96185868 -39.6971714 55.71188624 -41.02319336 55.46630859 C-59.32867097 52.06932307 -59.32867097 52.06932307 -64.65234375 45.5859375 C-70.18015755 36.7339654 -70.85877591 26.93385027 -69.83984375 16.7109375 C-68.92836027 13.37817997 -67.67128703 10.63100091 -65.83984375 7.7109375 C-65.30359375 6.8446875 -64.76734375 5.9784375 -64.21484375 5.0859375 C-46.94957513 -12.17933112 -20.10221715 -12.87849359 0 0 Z " fill="#FBFBFB" transform="translate(1125.83984375,426.2890625)"/>
  <path d="M0 0 C5.70011282 4.34453043 9.86196693 10.13267718 12 17 C12 19.64 12 22.28 12 25 C3.42 25 -5.16 25 -14 25 C-14.495 22.03 -14.495 22.03 -15 19 C-22.79857175 16.31524579 -29.44890178 14.30739858 -37.4375 17.5 C-39.86024915 18.80856901 -40.79762931 19.4267987 -41.72265625 22.046875 C-42.07806296 24.50002023 -42.07806296 24.50002023 -42 28 C-34.67406449 32.67612905 -27.42396368 33.86366665 -18.90942383 35.03808594 C-7.38738994 36.64923264 2.00533862 38.90971051 10 48 C13.85023013 53.5218603 14.6849173 57.64009169 14.5625 64.3125 C14.54606445 65.57380737 14.54606445 65.57380737 14.52929688 66.8605957 C14.21350715 75.9228837 11.38090219 81.64095033 5.3125 88.3125 C-6.0510356 98.88571452 -19.83753262 99.58675264 -34.58984375 99.30859375 C-46.60673363 98.80710969 -55.25294752 94.68773773 -63.77734375 86.23828125 C-69.66104098 79.83670358 -71 74.8849165 -71 66 C-62.42 66 -53.84 66 -45 66 C-43 70 -43 70 -43 73 C-33.84494644 76.54934384 -23.26533705 76.02541618 -14 73 C-13.34 69.04 -12.68 65.08 -12 61 C-17.88324168 59.61930154 -23.74550124 58.52718898 -29.71704102 57.60595703 C-57.5890642 53.27534061 -57.5890642 53.27534061 -65.53125 43.0234375 C-68.96369892 37.47431174 -69.45375578 32.24497898 -69.5 25.875 C-69.50636475 25.1231543 -69.51272949 24.37130859 -69.51928711 23.59667969 C-69.35943914 16.54483607 -67.58271861 9.85076705 -62.6875 4.50390625 C-45.06865406 -11.1980745 -19.76280007 -12.39820107 0 0 Z " fill="#FBFBFB" transform="translate(1866,426)"/>
  <path d="M0 0 C1.00023193 0.00523682 2.00046387 0.01047363 3.03100586 0.01586914 C4.00303955 0.0183667 4.97507324 0.02086426 5.9765625 0.0234375 C7.84235962 0.03709351 7.84235962 0.03709351 9.74584961 0.05102539 C13.68522461 0.07165039 17.62459961 0.09227539 21.68334961 0.11352539 C21.68334961 9.68352539 21.68334961 19.25352539 21.68334961 29.11352539 C38.84334961 29.11352539 56.00334961 29.11352539 73.68334961 29.11352539 C73.68334961 36.37352539 73.68334961 43.63352539 73.68334961 51.11352539 C56.85334961 51.11352539 40.02334961 51.11352539 22.68334961 51.11352539 C22.80709961 57.83727539 22.93084961 64.56102539 23.05834961 71.48852539 C23.09234863 73.59018066 23.12634766 75.69183594 23.16137695 77.85717773 C23.19663823 79.55462099 23.23256546 81.2520506 23.26928711 82.94946289 C23.2863269 84.23300659 23.2863269 84.23300659 23.30371094 85.54248047 C23.47241983 94.51017641 23.47241983 94.51017641 25.68334961 103.11352539 C27.5510305 104.39134221 27.5510305 104.39134221 29.68334961 105.11352539 C31.04459961 105.67040039 31.04459961 105.67040039 32.43334961 106.23852539 C39.1166835 108.03788452 43.60198857 107.58858884 49.68334961 104.11352539 C50.34334961 104.11352539 51.00334961 104.11352539 51.68334961 104.11352539 C53.16834961 96.19352539 53.16834961 96.19352539 54.68334961 88.11352539 C62.93334961 88.11352539 71.18334961 88.11352539 79.68334961 88.11352539 C80.05867878 100.87471728 79.15253434 111.94027935 70.68334961 122.11352539 C58.0818543 132.12440493 45.17850312 133.02164162 29.68334961 132.11352539 C19.66418974 130.74358233 11.26051456 125.7868845 4.68334961 118.11352539 C-2.77757366 107.84659891 -3.47586289 96.88070283 -3.44604492 84.57055664 C-3.44779724 83.66376663 -3.44954956 82.75697662 -3.45135498 81.82270813 C-3.45571915 78.85712716 -3.4528568 75.89160685 -3.44946289 72.92602539 C-3.45013702 70.85620106 -3.45110796 68.7863768 -3.45236206 66.71655273 C-3.45383125 62.3962325 -3.4517078 58.07593304 -3.44702148 53.75561523 C-3.44129599 48.20587025 -3.44462585 42.65617332 -3.45059395 37.10643005 C-3.45419625 32.84124383 -3.45306301 28.57606913 -3.45046616 24.31088257 C-3.44979745 22.26305129 -3.45062337 20.21521898 -3.45294571 18.16738892 C-3.45546988 15.31867667 -3.45163632 12.47004416 -3.44604492 9.62133789 C-3.44806915 8.76945389 -3.45009338 7.91756989 -3.45217896 7.03987122 C-3.42704206 0.16793915 -3.42704206 0.16793915 0 0 Z " fill="#FCFCFC" transform="translate(1430.316650390625,392.886474609375)"/>
  <path d="M0 0 C1.5631897 0.00785522 1.5631897 0.00785522 3.15795898 0.01586914 C4.28266602 0.0190918 5.40737305 0.02231445 6.56616211 0.02563477 C7.75016602 0.03401367 8.93416992 0.04239258 10.15405273 0.05102539 C11.34192383 0.05553711 12.52979492 0.06004883 13.75366211 0.06469727 C16.69967499 0.07652864 19.64558954 0.09301252 22.59155273 0.11352539 C22.59519836 0.78622971 22.59884399 1.45893402 22.6026001 2.15202332 C22.64469983 9.21008763 22.71423495 16.26751819 22.79907227 23.32519531 C22.8271432 25.9524092 22.84842607 28.57970536 22.86254883 31.20703125 C22.88417069 35.00310981 22.93092115 38.79821339 22.98217773 42.59399414 C22.98340637 43.75182907 22.98463501 44.909664 22.98590088 46.10258484 C23.16513748 56.28469759 24.59534246 66.30796038 31.59155273 74.11352539 C37.91121128 78.56022061 45.10290173 79.10071108 52.59155273 78.11352539 C58.37706054 76.4817155 62.82468744 73.87750208 66.59155273 69.11352539 C69.74536942 62.91852834 70.68780251 57.17889658 70.796875 50.29174805 C70.81682022 49.17103912 70.83676544 48.0503302 70.85731506 46.8956604 C70.87402756 45.70169647 70.89074005 44.50773254 70.90795898 43.27758789 C70.93913063 41.42585464 70.93913063 41.42585464 70.97093201 39.53671265 C71.0361711 35.60403868 71.09519326 31.6712995 71.15405273 27.73852539 C71.19675886 25.06793682 71.24087738 22.39737391 71.28491211 19.72680664 C71.39258701 13.18911201 71.49185173 6.65136593 71.59155273 0.11352539 C80.17155273 0.11352539 88.75155273 0.11352539 97.59155273 0.11352539 C97.65475334 7.8357032 97.71482351 15.55692469 97.74680328 23.27913666 C97.76253645 26.87647254 97.78350087 30.47359059 97.81787109 34.07080078 C97.85086365 37.54622822 97.86848809 41.02144666 97.87618446 44.49701881 C97.88429088 46.44483468 97.90764363 48.3925684 97.93144226 50.34025574 C97.93402904 64.2709569 95.30087482 77.99171445 86.21655273 88.98852539 C85.35030273 89.68977539 84.48405273 90.39102539 83.59155273 91.11352539 C83.05272461 91.59047852 82.51389648 92.06743164 81.95874023 92.55883789 C69.037809 103.31727017 52.62275865 104.04197361 36.59155273 103.11352539 C25.80371686 101.71466316 16.36090007 96.74026743 8.59155273 89.11352539 C-2.17391476 74.01170496 -3.57594617 58.00743277 -3.54125977 39.91821289 C-3.54221649 38.8041507 -3.54317322 37.6900885 -3.54415894 36.54226685 C-3.54483438 34.2112014 -3.54302488 31.88013401 -3.53881836 29.54907227 C-3.53340988 25.96374382 -3.53881079 22.37853776 -3.54516602 18.79321289 C-3.54450612 16.52237928 -3.54322679 14.25154575 -3.54125977 11.98071289 C-3.543284 10.90481903 -3.54530823 9.82892517 -3.5473938 8.72042847 C-3.54424164 7.73495026 -3.54108948 6.74947205 -3.5378418 5.73413086 C-3.5370462 4.8635202 -3.53625061 3.99290955 -3.53543091 3.09591675 C-3.34643182 0.14537792 -2.96375781 0.1397007 0 0 Z " fill="#FDFDFD" transform="translate(1315.408447265625,421.886474609375)"/>
  <path d="M0 0 C7.92 0 15.84 0 24 0 C24 42.57 24 85.14 24 129 C16.08 129 8.16 129 0 129 C0 86.43 0 43.86 0 0 Z " fill="#FDFDFD" transform="translate(1270,393)"/>
  <path d="M0 0 C8.25 0 16.5 0 25 0 C25 33 25 66 25 100 C16.75 100 8.5 100 0 100 C0 67 0 34 0 0 Z " fill="#F7F8F8" transform="translate(1525,422)"/>
  <path d="M0 0 C10.23 0 20.46 0 31 0 C29.86938515 10.17553361 29.86938515 10.17553361 27.1875 13 C26.68605469 13.556875 26.18460938 14.11375 25.66796875 14.6875 C21.41293346 18.03572449 15.13655777 17.58517747 10 17 C5.65074507 14.82537253 2.4826194 12.20135591 0 8 C0 5.36 0 2.72 0 0 Z " fill="#F5F6F6" transform="translate(1522,393)"/>
</svg>
