<?xml version="1.0" encoding="UTF-8"?>
<svg id="Layer_2" data-name="Layer 2" xmlns="http://www.w3.org/2000/svg" viewBox="0 0 446.52 445.9">
  <defs>
    <style>
      .cls-1 {
        fill: #8759f2;
      }

      .cls-1, .cls-2, .cls-3 {
        stroke-width: 0px;
      }

      .cls-2 {
        fill: #fec400;
      }

      .cls-3 {
        fill: #ff3c82;
      }
    </style>
  </defs>
  <g id="_Слой_1" data-name="Слой 1">
    <g>
      <path class="cls-3" d="m372.99,139.85l-25.65-44.61h0c24.42-14.04,32.84-45.22,18.79-69.64-14.04-24.42-45.22-32.84-69.64-18.79-16.36,9.41-25.49,26.51-25.54,44.12l-51.48-.08c-21.45-.05-41.35,11.34-52.07,29.94l-34.53,59.47,62.23.11,16.16-27.82c2.81-4.84,7.99-7.82,13.59-7.81l56.81.12c5.6,0,10.78,3.02,13.56,7.86l28.35,49.31c2.78,4.84,2.78,10.83-.03,15.67l-56.12,96.7,25.23,43.88c2.56,4.45,8.98,4.47,11.56.03l68.71-118.31c10.72-18.6,10.8-41.47.08-60.12Z"/>
      <path class="cls-1" d="m438.52,253.82l-34.11-59.34-31.2,53.77-.02.07,15.88,27.62c2.79,4.85,2.78,10.83-.03,15.67l-28.48,49.16c-2.81,4.85-7.99,7.83-13.59,7.82l-56.85-.1c-5.6,0-10.77-3.01-13.56-7.86l-55.78-97.02-51.3-.09c-4.86,0-7.9,5.24-5.48,9.45l68.57,119.26c10.7,18.61,30.52,30.1,51.98,30.14l47.65.08c.92,6.12,2.92,12.18,6.19,17.86,14.04,24.42,45.22,32.84,69.64,18.79,24.42-14.04,32.84-45.22,18.79-69.64-3.27-5.68-7.49-10.46-12.31-14.33l23.9-41.24c10.76-18.57,10.8-41.47.1-60.08Z"/>
      <path class="cls-2" d="m294.17,165.01l-140.7-.25c-21.46-.04-41.31,11.37-52.09,29.93l-26.4,45.51c-14.99-7.97-33.59-8.33-49.39.75-24.42,14.04-32.84,45.22-18.8,69.64,14.04,24.42,45.22,32.84,69.64,18.79l24.6,42.79c10.7,18.61,30.51,30.1,51.98,30.14l68.67.13-31.01-53.94-32.09-.07c-5.6-.01-10.76-3.01-13.56-7.86l-28.32-49.25c-2.79-4.85-2.78-10.83.03-15.67l28.51-49.18c2.81-4.85,7.99-7.83,13.6-7.82l111.28.2,27.61-47.63c1.6-2.76-.39-6.21-3.58-6.22Z"/>
    </g>
  </g>
</svg>